<svg width="50" height="50" viewBox="0 0 50 50" fill="none" xmlns="http://www.w3.org/2000/svg">
<path d="M27.6694 24.1428L27.2336 23.956L25.8732 18.9307C25.7404 18.4131 25.2722 17.8505 24.8091 17.652L19.4157 15.3397C18.7075 15.0361 17.8631 15.2005 17.2928 15.7786L14.5945 18.5374C13.6139 18.117 12.5056 18.5961 12.0886 19.5689L10.7539 22.682C10.6467 22.9321 10.7539 23.2084 10.9991 23.3135L12.3066 23.8741C11.6631 25.375 12.3067 27.0329 13.7776 27.6635C15.2213 28.2825 16.8931 27.6172 17.5365 26.1163L21.0232 27.6111C20.3797 29.112 21.0233 30.7699 22.4942 31.4005C23.9379 32.0194 25.6096 31.3542 26.2531 29.8532L27.5606 30.4138C27.7785 30.5072 28.0799 30.4061 28.1871 30.1559L29.1404 27.9323C29.772 26.4591 29.1131 24.7618 27.6694 24.1428ZM22.2214 17.5955L24.4278 18.5414C24.7002 18.6582 24.8858 18.9023 24.9539 19.1947L26.1168 23.4772L20.6961 21.1533L22.2214 17.5955ZM17.967 16.4625C18.2581 16.1596 18.6803 16.0773 19.0344 16.2292L21.3498 17.2218L19.8245 20.7796L15.5207 18.9345L17.967 16.4625ZM14.1589 26.7741C13.1783 26.3537 12.7493 25.2484 13.1782 24.2478C13.5953 23.275 14.7036 22.7959 15.6842 23.2163C16.6376 23.625 17.082 24.7697 16.6649 25.7426C16.2359 26.7432 15.1123 27.1828 14.1589 26.7741ZM22.8755 30.511C21.8949 30.0906 21.4658 28.9854 21.8948 27.9847C22.3119 27.0119 23.4202 26.5328 24.4008 26.9532C25.3542 27.362 25.7985 28.5067 25.3815 29.4795C24.9525 30.4802 23.8289 30.9198 22.8755 30.511ZM27.5061 29.3375L26.471 28.8937C26.5306 27.7018 25.8989 26.5426 24.7821 26.0638C23.6381 25.5733 22.3629 25.9151 21.5407 26.78L17.7544 25.1568C17.814 23.9648 17.1823 22.8056 16.0655 22.3268C14.9215 21.8364 13.6464 22.1781 12.8241 23.043L11.8162 22.6109L12.9602 19.9426C13.1628 19.4701 13.7229 19.2166 14.2132 19.4269L27.2881 25.0323C28.2415 25.441 28.6858 26.5857 28.2688 27.5586L27.5061 29.3375Z" fill="#EAEAEB"/>
<rect x="29.6533" y="15.9941" width="1" height="16" fill="#EAEAEB"/>
<line x1="4" y1="32.0605" x2="46" y2="32.0605" stroke="#EAEAEB" stroke-width="0.5"/>
<path d="M30.8775 23.7235L34.2928 23.5141L31.4712 25.3038L30.6822 25.8043L31.5363 26.1831L33.8644 27.2156L31.3587 26.8436L30.4476 26.7084L30.8305 27.5461L32.102 30.3276L29.8435 28.2654L29.1631 27.6442L29.013 28.5532L28.3355 32.6548L27.8063 28.4223L27.71 27.6517L27.0484 28.0583L25.3092 29.1274L26.1816 27.1602L26.5408 26.3501L25.6617 26.4614L21.8159 26.9485L25.6942 25.2256L26.4133 24.9061L25.8187 24.3908L22.168 21.2269L26.2576 23.0406L26.9215 23.335L26.9596 22.6098L27.1281 19.4031L28.3702 22.5173L28.7289 23.4167L29.2545 22.6035L31.6804 18.8499L30.3693 23.0763L30.1548 23.7679L30.8775 23.7235Z" fill="#282A35" stroke="#EAEAEB"/>
<line x1="22.8437" y1="36.1269" x2="25.5534" y2="33.4172" stroke="#EAEAEB"/>
<line x1="23.6445" y1="14.5801" x2="24.9993" y2="17.2898" stroke="#EAEAEB"/>
<line x1="35.7659" y1="33.4411" x2="37.7679" y2="35.7148" stroke="#EAEAEB"/>
</svg>
