<svg width="50" height="50" viewBox="0 0 50 50" fill="none" xmlns="http://www.w3.org/2000/svg">
<path d="M27.0161 25.1487L26.5803 24.9619L25.2199 19.9366C25.0871 19.419 24.6189 18.8563 24.1558 18.6578L18.7624 16.3456C18.0542 16.0419 17.2098 16.2064 16.6395 16.7845L13.9412 19.5433C12.9606 19.1229 11.8523 19.6019 11.4352 20.5748L10.1006 23.6878C9.99336 23.938 10.1006 24.2143 10.3458 24.3194L11.6533 24.88C11.0098 26.3809 11.6533 28.0388 13.1243 28.6694C14.568 29.2883 16.2397 28.6231 16.8832 27.1221L20.3699 28.6169C19.7264 30.1179 20.3699 31.7757 21.8409 32.4063C23.2845 33.0253 24.9563 32.36 25.5998 30.8591L26.9073 31.4196C27.1252 31.5131 27.4265 31.4119 27.5338 31.1618L28.4871 28.9381C29.1187 27.465 28.4598 25.7676 27.0161 25.1487ZM21.5681 18.6013L23.7745 19.5473C24.0469 19.664 24.2325 19.9081 24.3006 20.2005L25.4634 24.4831L20.0428 22.1591L21.5681 18.6013ZM17.3137 17.4684C17.6048 17.1654 18.027 17.0832 18.3811 17.235L20.6964 18.2276L19.1712 21.7854L14.8673 19.9403L17.3137 17.4684ZM13.5056 27.7799C12.525 27.3595 12.0959 26.2543 12.5249 25.2536C12.942 24.2808 14.0503 23.8017 15.0309 24.2221C15.9843 24.6309 16.4286 25.7756 16.0116 26.7484C15.5826 27.7491 14.459 28.1887 13.5056 27.7799ZM22.2222 31.5169C21.2416 31.0965 20.8125 29.9912 21.2415 28.9906C21.6586 28.0178 22.7669 27.5387 23.7475 27.9591C24.7009 28.3678 25.1452 29.5126 24.7281 30.4854C24.2992 31.486 23.1756 31.9256 22.2222 31.5169ZM26.8528 30.3433L25.8177 29.8996C25.8772 28.7077 25.2456 27.5485 24.1288 27.0697C22.9847 26.5792 21.7096 26.9209 20.8874 27.7859L17.1011 26.1626C17.1607 24.9707 16.529 23.8115 15.4122 23.3327C14.2682 22.8422 12.993 23.184 12.1708 24.0489L11.1629 23.6168L12.3069 20.9485C12.5095 20.4759 13.0696 20.2225 13.5599 20.4327L26.6348 26.0381C27.5881 26.4469 28.0325 27.5916 27.6154 28.5644L26.8528 30.3433Z" fill="#EAEAEB"/>
<path d="M42.0618 24.4258L41.215 21.7444C40.8424 20.58 39.7924 19.7686 38.6408 19.7686H33.0521C31.9005 19.7686 30.8505 20.58 30.4779 21.7444L29.6311 24.4258C28.5473 24.7786 27.7344 25.8371 27.7344 27.1073V31.6234C27.7344 32.576 28.4457 33.3169 29.3602 33.3169H29.9021C30.7828 33.3169 31.5279 32.576 31.5279 31.6234V31.0589H40.1989V31.6234C40.1989 32.576 40.9102 33.3169 41.8247 33.3169H42.3666C43.2473 33.3169 43.9924 32.576 43.9924 31.6234V27.1073C43.9924 25.8371 43.1457 24.7786 42.0618 24.4258ZM31.5279 22.0972C31.7311 21.3915 32.3408 20.8976 33.0521 20.8976H38.6408C39.3521 20.8976 39.9618 21.3915 40.165 22.0972L40.8763 24.2847H30.8166L31.5279 22.0972ZM30.4441 31.6234C30.4441 31.9409 30.1731 32.1879 29.9021 32.1879H29.3602C29.0553 32.1879 28.8182 31.9409 28.8182 31.6234V31.0589H30.4441V31.6234ZM42.9086 31.6234C42.9086 31.9409 42.6376 32.1879 42.3666 32.1879H41.8247C41.5199 32.1879 41.2828 31.9409 41.2828 31.6234V31.0589H42.9086V31.6234ZM42.9086 29.9298H28.8182V27.1073C28.8182 26.1899 29.5295 25.4137 30.4441 25.4137H41.2828C42.1634 25.4137 42.9086 26.1899 42.9086 27.1073V29.9298ZM31.257 26.2605C30.3763 26.2605 29.7666 26.8603 29.7666 27.6718C29.7666 28.5186 30.3763 29.0831 31.257 29.0831H31.5957C32.9505 29.0831 33.1537 28.3774 33.1537 27.954C33.1537 27.1073 32.0699 26.2605 31.257 26.2605ZM31.5957 28.2363C31.4941 28.2363 31.3586 28.2363 31.257 28.2363C30.8505 28.2363 30.5795 28.0246 30.5795 27.6718C30.5795 27.3542 30.8505 27.1073 31.257 27.1073C31.6973 27.1073 32.3408 27.6365 32.3408 27.954C32.3408 28.2363 31.9682 28.2363 31.5957 28.2363ZM40.436 26.2605C39.6231 26.2605 38.5731 27.1073 38.5731 27.954C38.5731 28.3774 38.7424 29.1184 40.0973 29.1184L40.436 29.0831C41.3166 29.0831 41.9602 28.5186 41.9602 27.6718C41.9602 26.8603 41.3166 26.2605 40.436 26.2605ZM40.436 28.2363C40.3344 28.2363 40.1989 28.2363 40.0973 28.2363C39.7247 28.2363 39.386 28.2363 39.386 27.954C39.386 27.6365 39.9957 27.1073 40.436 27.1073C40.8424 27.1073 41.1473 27.3542 41.1473 27.6718C41.1473 28.0246 40.8424 28.2363 40.436 28.2363Z" fill="#EAEAEB"/>
<line x1="3.34668" y1="33.0664" x2="45.3467" y2="33.0664" stroke="#EAEAEB" stroke-width="0.5"/>
<path d="M31.9362 24.2707L35.2718 23.5074L32.7796 25.7331L32.0827 26.3555L32.9871 26.59L35.4524 27.2292L32.9195 27.2706L31.9986 27.2857L32.5129 28.0498L34.2207 30.5869L31.6563 28.9204L30.8838 28.4184L30.8838 29.3396L30.8838 33.4968L29.6719 29.4072L29.4513 28.6625L28.8648 29.1716L27.3231 30.5098L27.8632 28.4267L28.0857 27.5689L27.2364 27.8221L23.5214 28.9294L27.0671 26.5974L27.7245 26.165L27.0538 25.7535L22.9363 23.2269L27.2668 24.3499L27.9698 24.5321L27.8892 23.8104L27.5329 20.6191L29.2659 23.4892L29.7664 24.3182L30.1525 23.4301L31.9342 19.3314L31.3294 23.715L31.2304 24.4322L31.9362 24.2707Z" fill="#282A35" stroke="#EAEAEB"/>
<line x1="22.1904" y1="37.1338" x2="24.9001" y2="34.4241" stroke="#EAEAEB"/>
<line x1="22.9912" y1="15.586" x2="24.346" y2="18.2956" stroke="#EAEAEB"/>
<line x1="35.1126" y1="34.4469" x2="37.1146" y2="36.7206" stroke="#EAEAEB"/>
</svg>
