<svg width="50" height="50" viewBox="0 0 50 50" fill="none" xmlns="http://www.w3.org/2000/svg">
<path d="M24.28 23.2857H23.86L20.9987 19.6696C20.71 19.2946 20.1325 19 19.6862 19H14.4887C13.8062 19 13.1762 19.4286 12.9137 20.0982L11.68 23.2857C10.735 23.2857 10 24.0625 10 25V28C10 28.2411 10.1837 28.4286 10.42 28.4286H11.68C11.68 29.875 12.7825 31 14.2 31C15.5912 31 16.72 29.875 16.72 28.4286H20.08C20.08 29.875 21.1825 31 22.6 31C23.9912 31 25.12 29.875 25.12 28.4286H26.38C26.59 28.4286 26.8 28.2411 26.8 28V25.8571C26.8 24.4375 25.6712 23.2857 24.28 23.2857ZM17.56 19.8571H19.6862C19.9487 19.8571 20.185 19.9911 20.3425 20.2054L22.7837 23.2857H17.56V19.8571ZM13.7012 20.4196C13.8325 20.0714 14.1475 19.8571 14.4887 19.8571H16.72V23.2857H12.5725L13.7012 20.4196ZM14.2 30.1429C13.255 30.1429 12.52 29.3929 12.52 28.4286C12.52 27.4911 13.255 26.7143 14.2 26.7143C15.1187 26.7143 15.88 27.4911 15.88 28.4286C15.88 29.3929 15.1187 30.1429 14.2 30.1429ZM22.6 30.1429C21.655 30.1429 20.92 29.3929 20.92 28.4286C20.92 27.4911 21.655 26.7143 22.6 26.7143C23.5187 26.7143 24.28 27.4911 24.28 28.4286C24.28 29.3929 23.5187 30.1429 22.6 30.1429ZM25.96 27.5714H24.9625C24.595 26.5804 23.6762 25.8571 22.6 25.8571C21.4975 25.8571 20.5787 26.5804 20.2112 27.5714H16.5625C16.195 26.5804 15.2762 25.8571 14.2 25.8571C13.0975 25.8571 12.1787 26.5804 11.8112 27.5714H10.84V25C10.84 24.5446 11.2075 24.1429 11.68 24.1429H24.28C25.1987 24.1429 25.96 24.9196 25.96 25.8571V27.5714Z" fill="#EAEAEB"/>
<path d="M43.0904 23.125L42.3404 20.75C42.0104 19.7187 41.0804 19 40.0604 19H35.1104C34.0904 19 33.1604 19.7187 32.8304 20.75L32.0804 23.125C31.1204 23.4375 30.4004 24.375 30.4004 25.5V29.5C30.4004 30.3438 31.0304 31 31.8404 31H32.3204C33.1004 31 33.7604 30.3438 33.7604 29.5V29H41.4404V29.5C41.4404 30.3438 42.0704 31 42.8804 31H43.3604C44.1404 31 44.8004 30.3438 44.8004 29.5V25.5C44.8004 24.375 44.0504 23.4375 43.0904 23.125ZM33.7604 21.0625C33.9404 20.4375 34.4804 20 35.1104 20H40.0604C40.6904 20 41.2304 20.4375 41.4104 21.0625L42.0404 23H33.1304L33.7604 21.0625ZM32.8004 29.5C32.8004 29.7813 32.5604 30 32.3204 30H31.8404C31.5704 30 31.3604 29.7813 31.3604 29.5V29H32.8004V29.5ZM43.8404 29.5C43.8404 29.7813 43.6004 30 43.3604 30H42.8804C42.6104 30 42.4004 29.7813 42.4004 29.5V29H43.8404V29.5ZM43.8404 28H31.3604V25.5C31.3604 24.6875 31.9904 24 32.8004 24H42.4004C43.1804 24 43.8404 24.6875 43.8404 25.5V28ZM33.5204 24.75C32.7404 24.75 32.2004 25.2812 32.2004 26C32.2004 26.75 32.7404 27.25 33.5204 27.25H33.8204C35.0204 27.25 35.2004 26.625 35.2004 26.25C35.2004 25.5 34.2404 24.75 33.5204 24.75ZM33.8204 26.5C33.7304 26.5 33.6104 26.5 33.5204 26.5C33.1604 26.5 32.9204 26.3125 32.9204 26C32.9204 25.7187 33.1604 25.5 33.5204 25.5C33.9104 25.5 34.4804 25.9687 34.4804 26.25C34.4804 26.5 34.1504 26.5 33.8204 26.5ZM41.6504 24.75C40.9304 24.75 40.0004 25.5 40.0004 26.25C40.0004 26.625 40.1504 27.2812 41.3504 27.2812L41.6504 27.25C42.4304 27.25 43.0004 26.75 43.0004 26C43.0004 25.2812 42.4304 24.75 41.6504 24.75ZM41.6504 26.5C41.5604 26.5 41.4404 26.5 41.3504 26.5C41.0204 26.5 40.7204 26.5 40.7204 26.25C40.7204 25.9687 41.2604 25.5 41.6504 25.5C42.0104 25.5 42.2804 25.7187 42.2804 26C42.2804 26.3125 42.0104 26.5 41.6504 26.5Z" fill="#EAEAEB"/>
<line x1="6.40039" y1="23.5498" x2="8.80039" y2="23.5498" stroke="#EAEAEB" stroke-width="0.5"/>
<line x1="4" y1="25.9502" x2="7.6" y2="25.9502" stroke="#EAEAEB" stroke-width="0.5"/>
<line x1="6.40039" y1="28.3496" x2="7.60039" y2="28.3496" stroke="#EAEAEB" stroke-width="0.5"/>
<line x1="8.7998" y1="30.75" x2="45.9998" y2="30.75" stroke="#EAEAEB" stroke-width="0.5"/>
</svg>
