<svg width="50" height="50" viewBox="0 0 50 50" fill="none" xmlns="http://www.w3.org/2000/svg">
<path d="M29.4411 23.6429H28.9658L25.7277 19.7254C25.4009 19.3192 24.7473 19 24.2423 19H18.3602C17.5878 19 16.8749 19.4643 16.5778 20.1897L15.1815 23.6429C14.1121 23.6429 13.2803 24.4844 13.2803 25.5V28.75C13.2803 29.0112 13.4882 29.2143 13.7556 29.2143H15.1815C15.1815 30.7813 16.4293 32 18.0335 32C19.6079 32 20.8854 30.7813 20.8854 29.2143H24.6879C24.6879 30.7813 25.9356 32 27.5398 32C29.1143 32 30.3917 30.7813 30.3917 29.2143H31.8177C32.0553 29.2143 32.293 29.0112 32.293 28.75V26.4286C32.293 24.8906 31.0156 23.6429 29.4411 23.6429ZM21.836 19.9286H24.2423C24.5394 19.9286 24.8067 20.0737 24.985 20.3058L27.7478 23.6429H21.836V19.9286ZM17.469 20.5379C17.6176 20.1607 17.974 19.9286 18.3602 19.9286H20.8854V23.6429H16.1916L17.469 20.5379ZM18.0335 31.0714C16.964 31.0714 16.1322 30.2589 16.1322 29.2143C16.1322 28.1987 16.964 27.3571 18.0335 27.3571C19.0732 27.3571 19.9347 28.1987 19.9347 29.2143C19.9347 30.2589 19.0732 31.0714 18.0335 31.0714ZM27.5398 31.0714C26.4704 31.0714 25.6385 30.2589 25.6385 29.2143C25.6385 28.1987 26.4704 27.3571 27.5398 27.3571C28.5796 27.3571 29.4411 28.1987 29.4411 29.2143C29.4411 30.2589 28.5796 31.0714 27.5398 31.0714ZM31.3424 28.2857H30.2135C29.7976 27.2121 28.7578 26.4286 27.5398 26.4286C26.2921 26.4286 25.2523 27.2121 24.8364 28.2857H20.7071C20.2912 27.2121 19.2515 26.4286 18.0335 26.4286C16.7857 26.4286 15.746 27.2121 15.3301 28.2857H14.2309V25.5C14.2309 25.0067 14.6468 24.5714 15.1815 24.5714H29.4411C30.4808 24.5714 31.3424 25.4129 31.3424 26.4286V28.2857Z" fill="#EAEAEB"/>
<line x1="9.20703" y1="23.9502" x2="11.9231" y2="23.9502" stroke="#EAEAEB" stroke-width="0.5"/>
<line x1="6.49023" y1="26.5498" x2="10.5644" y2="26.5498" stroke="#EAEAEB" stroke-width="0.5"/>
<line x1="9.20703" y1="29.1494" x2="10.5651" y2="29.1494" stroke="#EAEAEB" stroke-width="0.5"/>
<line x1="4" y1="31.75" x2="46.0996" y2="31.75" stroke="#EAEAEB" stroke-width="0.5"/>
<rect x="38.1777" y="20.083" width="1.13171" height="11.9167" fill="#EAEAEB"/>
</svg>
