<svg width="50" height="50" viewBox="0 0 50 50" fill="none" xmlns="http://www.w3.org/2000/svg">
<path d="M38.125 14.25L26.125 9.25C25.8125 9.125 25.3125 9.0625 25 9.0625C24.625 9.0625 24.125 9.125 23.8125 9.25L11.8125 14.25C10.6875 14.75 10 15.8125 10 17C10 29.4375 17.125 38 23.8125 40.8125C24.5625 41.125 25.375 41.125 26.125 40.8125C31.5 38.5625 40 30.875 40 17C40 15.8125 39.25 14.75 38.125 14.25ZM25.375 38.9375C25.125 39.0625 24.8125 39.0625 24.5625 38.9375C18.5 36.5 12 28 12 17C12 16.625 12.1875 16.25 12.5625 16.125L24.5625 11.125C24.8125 11 25.125 11 25.375 11.125L37.375 16.125C37.75 16.25 37.9375 16.625 37.9375 17C38 28 31.5 36.5 25.375 38.9375Z" fill="#EAEAEB"/>
<path d="M29.9375 22.875H29.2812V20.9062C29.2812 18.6367 27.3945 16.75 25.125 16.75C22.8281 16.75 20.9688 18.6367 20.9688 20.9062V22.875H20.3125C19.5742 22.875 19 23.4766 19 24.1875V29.4375C19 30.1758 19.5742 30.75 20.3125 30.75H29.9375C30.6484 30.75 31.25 30.1758 31.25 29.4375V24.1875C31.25 23.4766 30.6484 22.875 29.9375 22.875ZM26.2188 27.4688C26.2188 28.0977 25.7266 28.5625 25.125 28.5625C24.4961 28.5625 24.0312 28.0977 24.0312 27.4688V26.1562C24.0312 25.5547 24.4961 25.0625 25.125 25.0625C25.7266 25.0625 26.2188 25.5547 26.2188 26.1562V27.4688ZM27.0938 22.875H23.1562V20.9062C23.1562 19.8398 24.0312 18.9375 25.125 18.9375C26.1914 18.9375 27.0938 19.8398 27.0938 20.9062V22.875Z" fill="#EAEAEB"/>
</svg>
