<svg width="50" height="50" viewBox="0 0 50 50" fill="none" xmlns="http://www.w3.org/2000/svg">
<g clip-path="url(#clip0)">
<path fill-rule="evenodd" clip-rule="evenodd" d="M19 31.0018H23V29.0018H19V31.0018ZM37 23.3418C36.9483 22.5218 36.6628 21.7337 36.1772 21.0709C35.6916 20.4081 35.0263 19.8983 34.26 19.6018C33.3764 19.318 32.4177 19.3823 31.58 19.7818C31.1745 18.7234 30.5313 17.7723 29.7 17.0018C28.2325 15.9658 26.5325 15.3071 24.7501 15.0838C22.9676 14.8606 21.1577 15.0797 19.48 15.7218C18.0636 16.3068 16.8183 17.2409 15.8601 18.4368C14.9019 19.6328 14.262 21.0519 14 22.5618C13.193 22.8607 12.4851 23.3782 11.9553 24.0563C11.4256 24.7344 11.0948 25.5465 11 26.4018H13C13 25.8418 13.98 24.4018 15 24.4018C15.1294 24.4072 15.2585 24.3864 15.3797 24.3405C15.5008 24.2947 15.6114 24.2249 15.7048 24.1352C15.7983 24.0455 15.8726 23.9378 15.9233 23.8187C15.974 23.6995 16.0001 23.5713 16 23.4418V22.9218C16.1844 21.726 16.673 20.5977 17.419 19.6451C18.165 18.6924 19.1433 17.9475 20.26 17.4818C21.5689 16.9897 22.9752 16.813 24.3652 16.9659C25.7551 17.1188 27.0894 17.597 28.26 18.3618C29.1927 19.2445 29.8049 20.4126 30 21.6818C30.0514 21.8619 30.1514 22.0243 30.289 22.1513C30.4265 22.2783 30.5964 22.3649 30.78 22.4018C30.9637 22.4419 31.1549 22.4293 31.3318 22.3657C31.5087 22.302 31.664 22.1897 31.78 22.0418C31.9802 21.7663 32.2603 21.559 32.5823 21.4481C32.9043 21.3372 33.2526 21.328 33.58 21.4218C34.32 21.6618 35.08 22.5018 35.08 24.1618C35.0871 24.3923 35.1752 24.6129 35.3288 24.7848C35.4824 24.9567 35.6918 25.069 35.92 25.1018C37.92 25.4418 38.96 26.7618 38.96 29.1018C39.0246 29.5541 38.9985 30.0148 38.8831 30.4569C38.7677 30.899 38.5654 31.3137 38.2879 31.6768C38.0105 32.0399 37.6636 32.344 37.2673 32.5715C36.871 32.799 36.4334 32.9453 35.98 33.0018H23V35.0018H36.02C36.7309 34.9514 37.4246 34.7602 38.061 34.4394C38.6973 34.1186 39.2636 33.6746 39.7269 33.1331C40.1902 32.5916 40.5414 31.9635 40.7599 31.2852C40.9785 30.6069 41.0601 29.8919 41 29.1818C41.1466 27.8949 40.8222 26.5985 40.0868 25.5323C39.3515 24.466 38.255 23.7021 37 23.3818V23.3418ZM17 35.0018H21V33.0018H17V35.0018ZM11 35.0018H15V33.0018H11V35.0018ZM9 31.0018H15V29.0018H9V31.0018Z" fill="#EAEAEB"/>
</g>
<defs>
<clipPath id="clip0">
<rect width="32" height="20" fill="white" transform="translate(9 15)"/>
</clipPath>
</defs>
</svg>
