<svg width="50" height="50" viewBox="0 0 50 50" fill="none" xmlns="http://www.w3.org/2000/svg">
<path d="M25 14.5C19.1875 14.5 14.5 19.2344 14.5 25C14.5 30.8125 19.1875 35.5 25 35.5C30.7656 35.5 35.5 30.8125 35.5 25C35.5 19.2344 30.7656 14.5 25 14.5ZM25 34C20.0312 34 16 29.9688 16 25C16 20.0781 20.0312 16 25 16C29.9219 16 34 20.0781 34 25C34 29.9688 29.9219 34 25 34ZM25.8438 19H24.1094C23.7344 19 23.4531 19.3281 23.5 19.7031L23.9688 26.6875C24.0156 27.0156 24.2969 27.25 24.625 27.25H25.3281C25.6562 27.25 25.9375 27.0156 25.9844 26.6875L26.4531 19.7031C26.5 19.3281 26.2188 19 25.8438 19ZM25 28.375C24.3438 28.375 23.875 28.8906 23.875 29.5C23.875 30.1562 24.3438 30.625 25 30.625C25.6094 30.625 26.125 30.1562 26.125 29.5C26.125 28.8906 25.6094 28.375 25 28.375ZM14.2188 16.2812L13.6562 15.8125C13.4688 15.6719 13.2344 15.6719 13.0938 15.8594C11.0781 18.4844 10 21.7188 10 25C10 28.3281 11.0781 31.5625 13.0938 34.1875C13.2344 34.375 13.4688 34.375 13.6562 34.2344L14.2188 33.7656C14.4062 33.6719 14.4062 33.4375 14.2656 33.25C12.4844 30.9062 11.5 28 11.5 25C11.5 22.0469 12.4844 19.1406 14.2656 16.7969C14.4062 16.6094 14.4062 16.375 14.2188 16.2812ZM36.8594 15.8594C36.7188 15.6719 36.4844 15.6719 36.2969 15.8125L35.7344 16.2812C35.5469 16.375 35.5469 16.6094 35.6875 16.7969C37.4688 19.1406 38.5 22.0469 38.5 25C38.5 28 37.4688 30.9062 35.6875 33.25C35.5469 33.4375 35.5469 33.6719 35.7344 33.7656L36.2969 34.2344C36.4844 34.375 36.7188 34.375 36.8594 34.1875C38.875 31.5625 40 28.3281 40 25C40 21.7188 38.875 18.4844 36.8594 15.8594Z" fill="#282A35"/>
</svg>
