<svg width="50" height="50" viewBox="0 0 50 50" fill="none" xmlns="http://www.w3.org/2000/svg">
<path d="M31.5625 20.625L25.5625 18.125C25.4063 18.0625 25.1563 18.0312 25 18.0312C24.8125 18.0312 24.5625 18.0625 24.4063 18.125L18.4063 20.625C17.8438 20.875 17.5 21.4063 17.5 22C17.5 28.2188 21.0625 32.5 24.4063 33.9063C24.7813 34.0625 25.1875 34.0625 25.5625 33.9063C28.25 32.7813 32.5 28.9375 32.5 22C32.5 21.4063 32.125 20.875 31.5625 20.625ZM25.1875 32.9688C25.0625 33.0313 24.9063 33.0313 24.7813 32.9688C21.75 31.75 18.5 27.5 18.5 22C18.5 21.8125 18.5938 21.625 18.7813 21.5625L24.7813 19.0625C24.9063 19 25.0625 19 25.1875 19.0625L31.1875 21.5625C31.375 21.625 31.4688 21.8125 31.4688 22C31.5 27.5 28.25 31.75 25.1875 32.9688Z" fill="#282A35"/>
<path d="M27.0205 25.042H26.7393V24.1982C26.7393 23.2256 25.9307 22.417 24.958 22.417C23.9736 22.417 23.1768 23.2256 23.1768 24.1982V25.042H22.8955C22.5791 25.042 22.333 25.2998 22.333 25.6045V27.8545C22.333 28.1709 22.5791 28.417 22.8955 28.417H27.0205C27.3252 28.417 27.583 28.1709 27.583 27.8545V25.6045C27.583 25.2998 27.3252 25.042 27.0205 25.042ZM25.4268 27.0107C25.4268 27.2803 25.2158 27.4795 24.958 27.4795C24.6885 27.4795 24.4893 27.2803 24.4893 27.0107V26.4482C24.4893 26.1904 24.6885 25.9795 24.958 25.9795C25.2158 25.9795 25.4268 26.1904 25.4268 26.4482V27.0107ZM25.8018 25.042H24.1143V24.1982C24.1143 23.7412 24.4893 23.3545 24.958 23.3545C25.415 23.3545 25.8018 23.7412 25.8018 24.1982V25.042Z" fill="#282A35"/>
<circle cx="11.3333" cy="17.3333" r="1.58333" stroke="#282A35" stroke-width="1.5"/>
<circle cx="38.6663" cy="17.3333" r="1.58333" stroke="#282A35" stroke-width="1.5"/>
<circle cx="11.3333" cy="25.3333" r="1.58333" stroke="#282A35" stroke-width="1.5"/>
<circle cx="38.6663" cy="25.3333" r="1.58333" stroke="#282A35" stroke-width="1.5"/>
<circle cx="11.3333" cy="33.3333" r="1.58333" stroke="#282A35" stroke-width="1.5"/>
<circle cx="38.6663" cy="33.3333" r="1.58333" stroke="#282A35" stroke-width="1.5"/>
<path d="M13.333 17.333H18.4997L20.6663 19.833" stroke="#282A35" stroke-width="1.5"/>
<path d="M13.333 33.5H18.4997L20.6663 31" stroke="#282A35" stroke-width="1.5"/>
<path d="M13.333 25.167H18.4997" stroke="#282A35" stroke-width="1.5"/>
<path d="M31.667 25.333H36.8337" stroke="#282A35" stroke-width="1.5"/>
<path d="M36.667 17.333H31.5003L29.3337 19.833" stroke="#282A35" stroke-width="1.5"/>
<path d="M36.667 33.5H31.5003L29.3337 31" stroke="#282A35" stroke-width="1.5"/>
</svg>
