<svg width="50" height="50" viewBox="0 0 50 50" fill="none" xmlns="http://www.w3.org/2000/svg">
<g clip-path="url(#clip0)">
<path fill-rule="evenodd" clip-rule="evenodd" d="M31 19H21V29H31V19ZM33 19H35V21H33V23H35V25H33V27H35V29H33V29.62C33 29.986 32.8546 30.337 32.5958 30.5958C32.337 30.8546 31.986 31 31.62 31H31V33H29V31H27V33H25V31H23V33H21V31H20.38C20.014 31 19.663 30.8546 19.4042 30.5958C19.1454 30.337 19 29.986 19 29.62V29H17V27H19V25H17V23H19V21H17V19H19V18.38C19 18.014 19.1454 17.663 19.4042 17.4042C19.663 17.1454 20.014 17 20.38 17H21V15H23V17H25V15H27V17H29V15H31V17H31.62C31.986 17 32.337 17.1454 32.5958 17.4042C32.8546 17.663 33 18.014 33 18.38V19ZM25 39H11V27H15V25H10.6C10.3951 24.9947 10.1912 25.0298 9.99989 25.1033C9.80859 25.1768 9.63364 25.2873 9.48505 25.4285C9.33646 25.5696 9.21715 25.7387 9.13392 25.926C9.05069 26.1133 9.00519 26.3151 9 26.52V39.44C9 39.8537 9.16436 40.2505 9.45691 40.5431C9.74947 40.8356 10.1463 41 10.56 41H25.4C25.6049 41.0053 25.8088 40.9702 26.0001 40.8967C26.1914 40.8232 26.3664 40.7127 26.5149 40.5715C26.6635 40.4304 26.7829 40.2613 26.8661 40.074C26.9493 39.8867 26.9948 39.6849 27 39.48V35H25V39ZM41 10.56V25.44C41 25.8537 40.8356 26.2505 40.5431 26.5431C40.2505 26.8356 39.8537 27 39.44 27H37V25H39V11H25V13H23V10.56C23 10.1463 23.1644 9.74947 23.4569 9.45691C23.7495 9.16436 24.1463 9 24.56 9H39.44C39.8537 9 40.2505 9.16436 40.5431 9.45691C40.8356 9.74947 41 10.1463 41 10.56Z" fill="#EAEAEB"/>
</g>
<defs>
<clipPath id="clip0">
<rect width="32" height="32" fill="white" transform="translate(9 9)"/>
</clipPath>
</defs>
</svg>
