<svg width="50" height="50" viewBox="0 0 50 50" fill="none" xmlns="http://www.w3.org/2000/svg">
<path fill-rule="evenodd" clip-rule="evenodd" d="M12.42 11L16.7 15.3L15.3 16.7L11 12.42V16H9V10C9 9.73478 9.10536 9.48043 9.29289 9.29289C9.48043 9.10536 9.73478 9 10 9H16V11H12.42ZM16.7 34.7L12.42 39H16V41H10C9.73478 41 9.48043 40.8946 9.29289 40.7071C9.10536 40.5196 9 40.2652 9 40V34H11V37.58L15.3 33.3L16.7 34.7ZM11 25C11 26.5 13 28.08 16.04 29.14L15.4 31C11.4 29.62 9 27.42 9 25C9 22.58 11.34 20.34 15.4 19L16.04 20.9C13 21.92 11 23.5 11 25ZM39 34H41V40C41 40.2652 40.8946 40.5196 40.7071 40.7071C40.5196 40.8946 40.2652 41 40 41H34V39H37.58L33.3 34.7L34.7 33.3L39 37.58V34ZM41 10V16H39V12.42L34.7 16.7L33.3 15.3L37.58 11H34V9H40C40.2652 9 40.5196 9.10536 40.7071 9.29289C40.8946 9.48043 41 9.73478 41 10ZM41 25C41 27.46 38.66 29.66 34.6 31L33.96 29.1C37 28.08 39 26.5 39 25C39 23.5 37 21.92 33.96 20.86L34.6 19C38.6 20.38 41 22.58 41 25ZM25 31.8C23.6224 31.8503 22.2523 31.5763 21 31V22.3C22.2755 22.7899 23.6339 23.0276 25 23C26.3661 23.0276 27.7245 22.7899 29 22.3V31C27.7945 31.7132 26.3948 32.0281 25 31.9V31.8ZM25 19C26.4084 18.8672 27.8198 19.2201 29 20C27.8198 20.7799 26.4084 21.1328 25 21C23.6013 21.1106 22.203 20.782 21 20.06C22.1568 19.2251 23.5815 18.8476 25 19ZM25 17C22.12 17 19 17.94 19 20V31C19 33 22.02 33.74 25 33.74C27.98 33.74 31 33 31 31V20C31 18 27.88 17 25 17Z" fill="#EAEAEB"/>
<path fill-rule="evenodd" clip-rule="evenodd" d="M12.42 11L16.7 15.3L15.3 16.7L11 12.42V16H9V10C9 9.73478 9.10536 9.48043 9.29289 9.29289C9.48043 9.10536 9.73478 9 10 9H16V11H12.42ZM16.7 34.7L12.42 39H16V41H10C9.73478 41 9.48043 40.8946 9.29289 40.7071C9.10536 40.5196 9 40.2652 9 40V34H11V37.58L15.3 33.3L16.7 34.7ZM11 25C11 26.5 13 28.08 16.04 29.14L15.4 31C11.4 29.62 9 27.42 9 25C9 22.58 11.34 20.34 15.4 19L16.04 20.9C13 21.92 11 23.5 11 25ZM39 34H41V40C41 40.2652 40.8946 40.5196 40.7071 40.7071C40.5196 40.8946 40.2652 41 40 41H34V39H37.58L33.3 34.7L34.7 33.3L39 37.58V34ZM41 10V16H39V12.42L34.7 16.7L33.3 15.3L37.58 11H34V9H40C40.2652 9 40.5196 9.10536 40.7071 9.29289C40.8946 9.48043 41 9.73478 41 10ZM41 25C41 27.46 38.66 29.66 34.6 31L33.96 29.1C37 28.08 39 26.5 39 25C39 23.5 37 21.92 33.96 20.86L34.6 19C38.6 20.38 41 22.58 41 25ZM25 31.8C23.6224 31.8503 22.2523 31.5763 21 31V22.3C22.2755 22.7899 23.6339 23.0276 25 23C26.3661 23.0276 27.7245 22.7899 29 22.3V31C27.7945 31.7132 26.3948 32.0281 25 31.9V31.8ZM25 19C26.4084 18.8672 27.8198 19.2201 29 20C27.8198 20.7799 26.4084 21.1328 25 21C23.6013 21.1106 22.203 20.782 21 20.06C22.1568 19.2251 23.5815 18.8476 25 19ZM25 17C22.12 17 19 17.94 19 20V31C19 33 22.02 33.74 25 33.74C27.98 33.74 31 33 31 31V20C31 18 27.88 17 25 17Z" fill="#282A35"/>
</svg>
