<svg width="50" height="50" viewBox="0 0 50 50" fill="none" xmlns="http://www.w3.org/2000/svg">
<path d="M19.5841 13.5686C22.639 10.5137 27.6661 10.5137 30.721 13.5686C33.8146 16.6622 33.7759 21.6506 30.721 24.7055C29.9863 25.4403 29.1355 26.059 28.2461 26.407V29.6553L26.39 31.5114L28.8649 33.9863L26.39 36.4612L28.8649 38.9361L25.1525 42.6484L22.059 39.5548V26.407C21.1695 26.059 20.3188 25.4403 19.5841 24.7055C16.5292 21.6506 16.4905 16.6622 19.5841 13.5686ZM18.3466 12.3312C14.557 16.1208 14.5957 22.192 18.3466 25.943C18.9654 26.5617 19.5841 27.1031 20.2801 27.4898L20.3188 39.7481C20.3188 40.0575 20.5122 40.4829 20.7055 40.6762L24.2245 44.1952C24.7658 44.7365 25.5392 44.7365 26.0806 44.1952L30.4116 39.8641C30.9144 39.3614 30.953 38.5494 30.4116 38.008L28.8649 36.4612L30.4116 34.9144C30.9144 34.4117 30.953 33.5996 30.4116 33.0582L28.8649 31.5114L29.5996 30.7767C29.8316 30.5447 29.9863 30.2353 29.9863 29.8486L30.025 27.4898C30.721 27.1031 31.3397 26.5617 31.9584 25.943C35.7094 22.192 35.7481 16.1208 31.9584 12.3312C28.2075 8.58019 22.0976 8.58019 18.3466 12.3312ZM24.3791 14.6514C24.8045 14.226 25.5006 14.226 25.9259 14.6514C26.39 15.1154 26.3513 15.7728 25.9259 16.1982C25.4619 16.6622 24.8432 16.6622 24.3791 16.1982C23.9538 15.7728 23.9151 15.1154 24.3791 14.6514ZM23.2964 13.5686C22.2523 14.6127 22.291 16.2755 23.2964 17.2809C24.3405 18.325 25.9646 18.325 27.0087 17.2809C28.0141 16.2755 28.0528 14.6127 27.0087 13.5686C26.0033 12.5632 24.3018 12.5632 23.2964 13.5686Z" fill="#282A35"/>
</svg>
