<svg width="50" height="50" viewBox="0 0 50 50" fill="none" xmlns="http://www.w3.org/2000/svg">
<path d="M21.895 18.5149C20.4347 18.5653 19.2263 19.0184 18.2696 19.9751C17.3633 20.8815 16.8597 22.0899 16.9101 23.3487C16.9604 25.8663 16.7087 28.4343 16.2052 30.8512C16.1045 31.3044 16.4066 31.7575 16.8094 31.8079C17.2626 31.9086 17.6654 31.6568 17.7661 31.2037C18.3199 28.6357 18.5717 25.967 18.5214 23.3487C18.5214 22.4927 18.8235 21.6871 19.4277 21.0829C20.334 20.1765 21.5425 20.1262 21.895 20.1262C23.758 20.1765 25.2182 21.6871 25.2182 23.4494C25.2685 26.0174 25.1175 28.535 24.6643 31.0526C24.614 31.4554 24.9161 31.8582 25.3693 31.959C25.3693 31.959 25.4196 31.959 25.47 31.959C25.8728 31.959 26.2252 31.7072 26.2756 31.3044C26.6784 28.7364 26.8798 26.0677 26.8798 23.4494C26.8295 20.7808 24.614 18.5653 21.895 18.5149ZM21.8446 22.8956C21.4418 22.8956 21.0893 23.248 21.0893 23.7012C21.1397 27.3769 20.6361 31.0023 19.6795 34.5269L19.6291 34.7283C19.5284 35.0808 19.6795 35.7354 20.3844 35.7354C20.7369 35.7354 21.039 35.534 21.1397 35.1815L21.2404 34.9297C22.2474 31.254 22.7509 27.528 22.7006 23.6508C22.7006 23.1977 22.2474 22.8452 21.8446 22.8956ZM14.6442 17.5079C13.3854 19.0688 12.6805 21.0325 12.7309 23.0466C12.7812 25.0607 12.5798 27.0748 12.2273 28.9882C12.177 29.4413 12.4791 29.8442 12.8819 29.9449C12.9323 29.9449 12.9826 29.9449 13.033 29.9449C13.4358 29.9449 13.7883 29.6428 13.8386 29.2903C14.1911 27.2258 14.3925 25.1614 14.3421 23.0466C14.3421 21.385 14.8456 19.8241 15.903 18.5149C16.2052 18.2128 16.1548 17.7093 15.8023 17.4072C15.4499 17.1051 14.9464 17.1554 14.6442 17.5079ZM34.7348 22.6942C34.7348 21.8885 34.634 21.0325 34.483 20.2269C34.3823 19.8241 33.9291 19.522 33.5263 19.6227C33.0731 19.7234 32.771 20.1262 32.8717 20.5794C33.0228 21.2843 33.1235 21.9892 33.1235 22.7445C33.1738 23.097 33.1738 23.4998 33.1235 23.9026C33.1235 24.3558 33.5263 24.7082 33.9291 24.7082C34.3823 24.7082 34.7348 24.3558 34.7348 23.9026C34.7851 23.4998 34.7851 23.097 34.7348 22.6942ZM21.6935 10.0054C18.1689 9.9047 14.9464 11.2139 12.5294 13.6308C10.2132 15.9973 8.95444 19.0688 9.0048 22.392C9.0048 22.7445 9.0048 23.1473 9.0048 23.4998C8.95444 23.953 9.30691 24.3558 9.76008 24.3558H9.81043C10.2132 24.3558 10.5657 24.0033 10.6161 23.5501C10.6161 23.1473 10.6161 22.7445 10.6161 22.3417C10.5657 19.4716 11.6231 16.803 13.6372 14.7889C15.752 12.6741 18.6221 11.5663 21.6935 11.6167C25.4196 11.667 28.9443 13.5301 31.1094 16.6015C31.3612 16.954 31.8647 17.0547 32.2675 16.803C32.62 16.5512 32.7207 16.0477 32.4689 15.6449C30.0016 12.1706 25.9735 10.0558 21.6935 10.0054ZM21.7439 14.235C21.7439 14.235 21.6432 14.235 21.5928 14.235C21.039 14.235 20.0823 14.386 19.478 14.4868C19.0752 14.5875 18.7731 15.0406 18.8738 15.4938C18.9745 15.8966 19.4277 16.1987 19.8809 16.098C20.4851 15.947 21.1397 15.8463 21.7439 15.8463C25.9231 15.947 29.3471 19.2702 29.3974 23.2984C29.4478 25.3125 29.3471 27.3266 29.0953 29.2903C29.045 29.7435 29.3974 30.1463 29.8506 30.1966H29.9009C30.3038 30.1966 30.6562 29.8945 30.7066 29.4917C30.9583 27.4273 31.059 25.3628 31.0087 23.2984C30.9583 18.3639 26.7791 14.3357 21.7439 14.235Z" fill="#EAEAEB"/>
<path d="M39.4463 31.8223H31.4187V28.4882C31.4187 27.2258 32.4221 26.1577 33.7169 26.1253C35.0117 26.1253 36.0799 27.1935 36.0799 28.4559V28.9738C36.0799 29.427 36.4036 29.7506 36.8567 29.7506H37.8926C38.3134 29.7506 38.6694 29.427 38.6694 28.9738V28.4559C38.6694 25.7369 36.4359 23.5358 33.7169 23.5358C30.9979 23.5681 28.8292 25.8016 28.8292 28.5206V31.8223H28.0523C27.1783 31.8223 26.4986 32.5344 26.4986 33.376V38.5551C26.4986 39.4291 27.1783 40.1088 28.0523 40.1088H39.4463C40.2879 40.1088 41 39.4291 41 38.5551V33.376C41 32.5344 40.2879 31.8223 39.4463 31.8223ZM35.0441 36.7424C35.0441 37.4869 34.4614 38.0372 33.7493 38.0372C33.0048 38.0372 32.4545 37.4869 32.4545 36.7424V35.1887C32.4545 34.4766 33.0048 33.8939 33.7493 33.8939C34.4614 33.8939 35.0441 34.4766 35.0441 35.1887V36.7424Z" fill="#EAEAEB"/>
</svg>
