<svg width="50" height="50" viewBox="0 0 50 50" fill="none" xmlns="http://www.w3.org/2000/svg">
<g clip-path="url(#clip0)">
<path fill-rule="evenodd" clip-rule="evenodd" d="M18.6004 33.3199C16.9548 33.3199 15.3462 32.8319 13.978 31.9177C12.6098 31.0035 11.5434 29.7041 10.9137 28.1838C10.284 26.6635 10.1192 24.9906 10.4402 23.3767C10.7613 21.7628 11.5537 20.2803 12.7172 19.1167C13.8808 17.9532 15.3633 17.1608 16.9772 16.8397C18.5911 16.5187 20.264 16.6835 21.7843 17.3132C23.3046 17.9429 24.604 19.0093 25.5182 20.3775C26.4324 21.7457 26.9204 23.3543 26.9204 24.9999C26.9204 26.0925 26.7052 27.1744 26.287 28.1838C25.8689 29.1932 25.2561 30.1104 24.4835 30.883C23.7109 31.6556 22.7937 32.2684 21.7843 32.6866C20.7749 33.1047 19.693 33.3199 18.6004 33.3199ZM37.8004 37.1599C37.8004 37.6662 37.6502 38.1611 37.3689 38.5821C37.0876 39.0031 36.6878 39.3312 36.22 39.525C35.7523 39.7188 35.2375 39.7695 34.7409 39.6707C34.2443 39.5719 33.7882 39.3281 33.4302 38.9701C33.0721 38.612 32.8283 38.1559 32.7295 37.6593C32.6308 37.1627 32.6815 36.648 32.8752 36.1802C33.069 35.7124 33.3971 35.3126 33.8181 35.0313C34.2391 34.75 34.734 34.5999 35.2404 34.5999C35.9193 34.5999 36.5705 34.8696 37.0506 35.3497C37.5306 35.8298 37.8004 36.4809 37.8004 37.1599ZM35.2404 10.2799C35.7467 10.2799 36.2416 10.43 36.6626 10.7113C37.0836 10.9926 37.4117 11.3924 37.6055 11.8602C37.7993 12.328 37.8499 12.8427 37.7512 13.3393C37.6524 13.8359 37.4086 14.292 37.0506 14.6501C36.6925 15.0081 36.2364 15.2519 35.7398 15.3507C35.2432 15.4495 34.7285 15.3988 34.2607 15.205C33.7929 15.0112 33.3931 14.6831 33.1118 14.2621C32.8305 13.8411 32.6804 13.3462 32.6804 12.8399C32.6804 12.1609 32.9501 11.5098 33.4302 11.0297C33.9103 10.5496 34.5614 10.2799 35.2404 10.2799ZM37.1604 22.4399C37.6667 22.4399 38.1616 22.59 38.5826 22.8713C39.0036 23.1526 39.3317 23.5524 39.5255 24.0202C39.7193 24.488 39.7699 25.0027 39.6712 25.4993C39.5724 25.9959 39.3286 26.452 38.9706 26.8101C38.6125 27.1681 38.1564 27.4119 37.6598 27.5107C37.1632 27.6095 36.6485 27.5588 36.1807 27.365C35.7129 27.1712 35.3131 26.8431 35.0318 26.4221C34.7505 26.0011 34.6004 25.5062 34.6004 24.9999C34.6004 24.3209 34.8701 23.6698 35.3502 23.1897C35.8303 22.7096 36.4814 22.4399 37.1604 22.4399ZM28.2004 25.6399H33.41C33.5704 26.5893 34.0817 27.4437 34.8425 28.0339C35.6032 28.6241 36.5579 28.9069 37.5174 28.8264C38.4768 28.7459 39.3711 28.3079 40.0228 27.5992C40.6745 26.8904 41.0362 25.9627 41.0362 24.9999C41.0362 24.037 40.6745 23.1093 40.0228 22.4006C39.3711 21.6919 38.4768 21.2538 37.5174 21.1733C36.5579 21.0928 35.6032 21.3757 34.8425 21.9659C34.0817 22.5561 33.5704 23.4105 33.41 24.3599H28.2004C28.1205 23.1737 27.821 22.0127 27.3172 20.9359L33.0004 15.9247C33.6472 16.4093 34.4322 16.6739 35.2404 16.6799C36.0969 16.6728 36.9265 16.3796 37.5973 15.8468C38.268 15.314 38.7413 14.5722 38.942 13.7395C39.1426 12.9067 39.0591 12.0308 38.7046 11.251C38.3501 10.4712 37.7451 9.83227 36.9857 9.43588C36.2264 9.0395 35.3563 8.90839 34.5139 9.06341C33.6714 9.21843 32.905 9.65068 32.3365 10.2914C31.7679 10.9321 31.43 11.7446 31.3763 12.5995C31.3227 13.4544 31.5564 14.3027 32.0404 15.0095L26.6196 19.7903C25.495 18.0497 23.8375 16.7198 21.8946 15.9991C19.9518 15.2785 17.8279 15.2058 15.8403 15.792C13.8528 16.3782 12.1082 17.5918 10.8674 19.2514C9.62656 20.9111 8.95605 22.9277 8.95605 24.9999C8.95605 27.0721 9.62656 29.0887 10.8674 30.7483C12.1082 32.4079 13.8528 33.6215 15.8403 34.2077C17.8279 34.7939 19.9518 34.7213 21.8946 34.0006C23.8375 33.28 25.495 31.95 26.6196 30.2095L32.0404 34.9903C31.5564 35.6971 31.3227 36.5454 31.3763 37.4003C31.43 38.2552 31.7679 39.0676 32.3365 39.7083C32.905 40.3491 33.6714 40.7813 34.5139 40.9363C35.3563 41.0914 36.2264 40.9603 36.9857 40.5639C37.7451 40.1675 38.3501 39.5286 38.7046 38.7488C39.0591 37.969 39.1426 37.093 38.942 36.2603C38.7413 35.4275 38.268 34.6857 37.5973 34.1529C36.9265 33.6202 36.0969 33.3269 35.2404 33.3199C34.4212 33.319 33.6239 33.584 32.9684 34.0751L27.2852 29.0639C27.8001 27.9892 28.1104 26.8281 28.2004 25.6399Z" fill="#282A35"/>
</g>
<defs>
<clipPath id="clip0">
<rect width="32" height="32" fill="white" transform="translate(9 9)"/>
</clipPath>
</defs>
</svg>
