<svg width="50" height="50" viewBox="0 0 50 50" fill="none" xmlns="http://www.w3.org/2000/svg">
<path d="M12.5658 13.5531C15.2455 10.8734 19.6551 10.8734 22.3348 13.5531C25.0484 16.2667 25.0145 20.6424 22.3348 23.3221C21.6903 23.9665 20.9441 24.5093 20.1639 24.8145V27.6638L18.5358 29.292L20.7066 31.4628L18.5358 33.6337L20.7066 35.8046L17.4503 39.0609L14.7367 36.3473V24.8145C13.9566 24.5093 13.2103 23.9665 12.5658 23.3221C9.88617 20.6424 9.85225 16.2667 12.5658 13.5531ZM11.4804 12.4677C8.15626 15.7918 8.19018 21.1173 11.4804 24.4075C12.0231 24.9502 12.5658 25.4251 13.1764 25.7643L13.2103 36.5169C13.2103 36.7883 13.3799 37.1614 13.5495 37.331L16.6362 40.4177C17.1111 40.8926 17.7895 40.8926 18.2644 40.4177L22.0634 36.6187C22.5044 36.1777 22.5383 35.4654 22.0634 34.9905L20.7066 33.6337L22.0634 32.2769C22.5044 31.836 22.5383 31.1236 22.0634 30.6488L20.7066 29.292L21.3511 28.6475C21.5546 28.444 21.6903 28.1726 21.6903 27.8334L21.7242 25.7643C22.3348 25.4251 22.8775 24.9502 23.4202 24.4075C26.7105 21.1173 26.7444 15.7918 23.4202 12.4677C20.13 9.17744 14.7706 9.17744 11.4804 12.4677ZM16.7719 14.5029C17.145 14.1298 17.7556 14.1298 18.1287 14.5029C18.5358 14.9099 18.5018 15.4865 18.1287 15.8597C17.7217 16.2667 17.179 16.2667 16.7719 15.8597C16.3988 15.4865 16.3649 14.9099 16.7719 14.5029ZM15.8222 13.5531C14.9063 14.469 14.9402 15.9275 15.8222 16.8094C16.738 17.7253 18.1626 17.7253 19.0785 16.8094C19.9604 15.9275 19.9943 14.469 19.0785 13.5531C18.1966 12.6712 16.7041 12.6712 15.8222 13.5531Z" fill="#282A35"/>
<path d="M34.7091 15.8366C31.2552 15.8777 28.5004 18.7148 28.5004 22.1687V25.0469H19.2901C18.18 25.0469 17.3165 25.9514 17.3165 27.0205V34.915C17.3165 36.0251 18.18 36.8886 19.2901 36.8886H33.7634C34.8324 36.8886 35.737 36.0251 35.737 34.915V27.0205C35.737 25.9514 34.8324 25.0469 33.7634 25.0469H31.7898V22.1275C31.7898 20.524 33.0644 19.1671 34.7091 19.126C36.3538 19.126 37.7106 20.4829 37.7106 22.0864V25.3758C37.7106 25.9514 38.1218 26.3626 38.6974 26.3626H40.0132C40.5477 26.3626 41 25.9514 41 25.3758V22.0864C41 18.6326 38.1629 15.8366 34.7091 15.8366ZM28.1714 31.9545C28.1714 32.9002 27.4313 33.5992 26.5268 33.5992C25.5811 33.5992 24.8821 32.9002 24.8821 31.9545V29.9809C24.8821 29.0763 25.5811 28.3362 26.5268 28.3362C27.4313 28.3362 28.1714 29.0763 28.1714 29.9809V31.9545Z" fill="#282A35"/>
</svg>
