<svg width="50" height="50" viewBox="0 0 50 50" fill="none" xmlns="http://www.w3.org/2000/svg">
<path d="M34.65 22.0625L33.7 20.8233L31.3 22.6078L32.25 23.847L34.65 22.0625ZM37.8 21.5172C38.45 21.5172 39.05 21.319 39.55 21.0216C39.9 20.7737 40.2 20.4763 40.45 20.1293C40.8 19.6336 41 19.0388 41 18.3448C41 17.7004 40.8 17.1056 40.45 16.6099C40.3 16.4116 40.2 16.2629 40.05 16.1142C39.9 15.9655 39.75 15.8664 39.55 15.7177C39.05 15.3707 38.45 15.1724 37.8 15.1724C37.1 15.1724 36.5 15.3707 36 15.7177C35.65 15.9655 35.35 16.2629 35.1 16.6099C34.8 17.1056 34.6 17.7004 34.6 18.3448C34.6 20.1293 36 21.5172 37.8 21.5172ZM37.8 16.7586C38.65 16.7586 39.4 17.5022 39.4 18.3448C39.4 19.2371 38.65 19.931 37.8 19.931C36.9 19.931 36.2 19.2371 36.2 18.3448C36.2 17.5022 36.9 16.7586 37.8 16.7586ZM13.95 24.4418C13.45 24.0948 12.85 23.8966 12.2 23.8966C11.5 23.8966 10.9 24.0948 10.4 24.4418C10.05 24.6897 9.75 24.9871 9.5 25.3341C9.2 25.8297 9 26.4246 9 27.069C9 28.8534 10.4 30.2414 12.2 30.2414C13.95 30.2414 15.4 28.8534 15.4 27.069C15.4 26.4246 15.2 25.8297 14.85 25.3341C14.6 24.9871 14.3 24.6897 13.95 24.4418ZM12.2 28.6552C11.3 28.6552 10.6 27.9612 10.6 27.069C10.6 26.2263 11.3 25.4828 12.2 25.4828C13.05 25.4828 13.8 26.2263 13.8 27.069C13.8 27.9612 13.05 28.6552 12.2 28.6552ZM16.6 27.8621H19V26.2759H16.6V27.8621ZM40.05 31.9763C39.9 31.8276 39.75 31.7284 39.55 31.5797C39.05 31.2328 38.45 31.0345 37.8 31.0345C37.1 31.0345 36.5 31.2328 36 31.5797C35.8 31.7284 35.65 31.8276 35.55 31.9763L30.95 29.25C31.2 28.556 31.4 27.8621 31.4 27.069C31.4 24.0453 28.85 21.5172 25.8 21.5172C25.2 21.5172 24.7 21.6659 24.15 21.8147L22.2 17.6509C22.9 17.056 23.4 16.1638 23.4 15.1724C23.4 14.528 23.2 13.9332 22.85 13.4375C22.6 13.0905 22.3 12.7931 21.95 12.5453C21.45 12.1983 20.85 12 20.2 12C19.5 12 18.9 12.1983 18.4 12.5453C18.05 12.7931 17.75 13.0905 17.5 13.4375C17.2 13.9332 17 14.528 17 15.1724C17 16.9569 18.4 18.3448 20.2 18.3448C20.4 18.3448 20.55 18.3448 20.75 18.2953L22.7 22.4591C21.2 23.4504 20.2 25.1358 20.2 27.069C20.2 30.1422 22.7 32.6207 25.8 32.6207C27.55 32.6207 29.05 31.8276 30.1 30.5884L34.7 33.3147C34.65 33.6121 34.6 33.9095 34.6 34.2069C34.6 35.9914 36 37.3793 37.8 37.3793C38.45 37.3793 39.05 37.181 39.55 36.8836C39.9 36.6358 40.2 36.3384 40.45 35.9914C40.8 35.4957 41 34.9009 41 34.2069C41 33.5625 40.8 32.9677 40.45 32.472C40.3 32.2737 40.2 32.125 40.05 31.9763ZM20.2 16.7586C19.3 16.7586 18.6 16.0647 18.6 15.1724C18.6 14.3297 19.3 13.5862 20.2 13.5862C21.05 13.5862 21.8 14.3297 21.8 15.1724C21.8 16.0647 21.05 16.7586 20.2 16.7586ZM25.8 31.0345C23.55 31.0345 21.8 29.2996 21.8 27.069C21.8 24.8879 23.55 23.1034 25.8 23.1034C28 23.1034 29.8 24.8879 29.8 27.069C29.8 29.2996 28 31.0345 25.8 31.0345ZM37.8 35.7931C36.9 35.7931 36.2 35.0991 36.2 34.2069C36.2 33.3642 36.9 32.6207 37.8 32.6207C38.65 32.6207 39.4 33.3642 39.4 34.2069C39.4 35.0991 38.65 35.7931 37.8 35.7931Z" fill="#EAEAEB"/>
</svg>
