<svg width="50" height="50" viewBox="0 0 50 50" fill="none" xmlns="http://www.w3.org/2000/svg">
<path d="M38.125 14.25L26.125 9.25C25.8125 9.125 25.3125 9.0625 25 9.0625C24.625 9.0625 24.125 9.125 23.8125 9.25L11.8125 14.25C10.6875 14.75 10 15.8125 10 17C10 29.4375 17.125 38 23.8125 40.8125C24.5625 41.125 25.375 41.125 26.125 40.8125C31.5 38.5625 40 30.875 40 17C40 15.8125 39.25 14.75 38.125 14.25ZM25.375 38.9375C25.125 39.0625 24.8125 39.0625 24.5625 38.9375C18.5 36.5 12 28 12 17C12 16.625 12.1875 16.25 12.5625 16.125L24.5625 11.125C24.8125 11 25.125 11 25.375 11.125L37.375 16.125C37.75 16.25 37.9375 16.625 37.9375 17C38 28 31.5 36.5 25.375 38.9375Z" fill="#282A35"/>
<path d="M20.6619 21.8551H21.8409C21.8239 20.8182 20.9716 20.1023 19.6761 20.1023C18.4006 20.1023 17.4659 20.8068 17.4716 21.8636C17.4688 22.7216 18.0739 23.2131 19.0568 23.4489L19.6903 23.608C20.3239 23.7614 20.6761 23.9432 20.679 24.3352C20.6761 24.7614 20.2727 25.0511 19.6477 25.0511C19.0085 25.0511 18.5483 24.7557 18.5085 24.1733H17.3182C17.3494 25.4318 18.25 26.0824 19.6619 26.0824C21.0824 26.0824 21.9176 25.4034 21.9205 24.3381C21.9176 23.3693 21.1875 22.8551 20.1761 22.6278L19.6534 22.5028C19.1477 22.3864 18.7244 22.1989 18.733 21.7812C18.733 21.4062 19.0653 21.1307 19.6676 21.1307C20.2557 21.1307 20.6165 21.3977 20.6619 21.8551ZM25.9041 21.8551H27.0831C27.0661 20.8182 26.2138 20.1023 24.9183 20.1023C23.6428 20.1023 22.7081 20.8068 22.7138 21.8636C22.7109 22.7216 23.3161 23.2131 24.299 23.4489L24.9325 23.608C25.5661 23.7614 25.9183 23.9432 25.9212 24.3352C25.9183 24.7614 25.5149 25.0511 24.8899 25.0511C24.2507 25.0511 23.7905 24.7557 23.7507 24.1733H22.5604C22.5916 25.4318 23.4922 26.0824 24.9041 26.0824C26.3246 26.0824 27.1598 25.4034 27.1626 24.3381C27.1598 23.3693 26.4297 22.8551 25.4183 22.6278L24.8956 22.5028C24.3899 22.3864 23.9666 22.1989 23.9751 21.7812C23.9751 21.4062 24.3075 21.1307 24.9098 21.1307C25.4979 21.1307 25.8587 21.3977 25.9041 21.8551ZM27.9901 26H31.7145V24.9858H29.2202V20.1818H27.9901V26Z" fill="#282A35"/>
</svg>
