<svg width="50" height="50" viewBox="0 0 50 50" fill="none" xmlns="http://www.w3.org/2000/svg">
<path d="M36.4844 16.0938L25.9844 11.7188C25.7109 11.6094 25.2734 11.5547 25 11.5547C24.6719 11.5547 24.2344 11.6094 23.9609 11.7188L13.4609 16.0938C12.4766 16.5312 11.875 17.4609 11.875 18.5C11.875 29.3828 18.1094 36.875 23.9609 39.3359C24.6172 39.6094 25.3281 39.6094 25.9844 39.3359C30.6875 37.3672 38.125 30.6406 38.125 18.5C38.125 17.4609 37.4688 16.5312 36.4844 16.0938ZM25.3281 37.6953C25.1094 37.8047 24.8359 37.8047 24.6172 37.6953C19.3125 35.5625 13.625 28.125 13.625 18.5C13.625 18.1719 13.7891 17.8438 14.1172 17.7344L24.6172 13.3594C24.8359 13.25 25.1094 13.25 25.3281 13.3594L35.8281 17.7344C36.1562 17.8438 36.375 18.1719 36.3203 18.5C36.375 28.125 30.6875 35.5625 25.3281 37.6953ZM32.7656 19.9219C32.4922 19.7031 32.1094 19.7031 31.8359 19.9219L22.9219 28.7812L19.1484 25.0078C18.875 24.7344 18.4375 24.7344 18.2188 25.0078L17.7266 25.4453C17.4531 25.7188 17.4531 26.1016 17.7266 26.375L22.4297 31.1328C22.7031 31.3516 23.0859 31.3516 23.3594 31.1328L33.2031 21.3438C33.4766 21.0703 33.4766 20.6875 33.2031 20.4141L32.7656 19.9219Z" fill="#EAEAEB"/>
</svg>
