<svg width="50" height="50" viewBox="0 0 50 50" fill="none" xmlns="http://www.w3.org/2000/svg">
<path d="M37.5 13H13.5C12.6562 13 12 13.7031 12 14.5V35.5C12 36.3438 12.6562 37 13.5 37H37.5C38.2969 37 39 36.3438 39 35.5V14.5C39 13.7031 38.2969 13 37.5 13ZM37.5 35.5H13.5V25.75H19.7812L21.7969 29.875C21.9375 30.1094 22.1719 30.25 22.4531 30.25C22.5 30.25 22.5 30.25 22.5469 30.25C22.8281 30.25 23.1094 30.0625 23.2031 29.7812L25.5 22.8906L26.25 25.2812C26.3438 25.5625 26.6719 25.75 27 25.75H34.125C34.3125 25.75 34.5 25.6094 34.5 25.375V24.625C34.5 24.4375 34.3125 24.25 34.125 24.25H27.5156L26.2031 20.2656C25.9688 19.6562 24.9844 19.6562 24.75 20.2656L22.3594 27.5781L20.9062 24.6719C20.7656 24.4375 20.4844 24.2969 20.25 24.2969H13.5V14.5H37.5V35.5Z" fill="#EAEAEB"/>
</svg>
