<svg width="50" height="50" viewBox="0 0 50 50" fill="none" xmlns="http://www.w3.org/2000/svg">
<path d="M21 16.75V18.5H22.75V16.75H21ZM24.5547 26.0469C24.5 25.7188 24.2266 25.5 23.9531 25.5H22.75V23.75H21V25.5L19.9062 30.8594C19.5781 32.6094 20.8906 34.25 22.75 34.25C24.5547 34.25 25.8672 32.6094 25.5391 30.8594L24.5547 26.0469ZM22.75 32.8828C21.7656 32.8828 20.9453 32.1719 20.9453 31.4062C20.9453 30.5859 21.7656 29.9297 22.75 29.9297C23.7344 29.9297 24.5 30.5859 24.5 31.4062C24.5 32.1719 23.7344 32.8828 22.75 32.8828ZM21 20.25V22H22.75V20.25H21ZM24.5 15H22.75V16.75H24.5V15ZM34.1797 16.8594L29.6406 12.2656C29.1484 11.7734 28.4375 11.5 27.7812 11.5H16.625C15.1484 11.5 14 12.7031 14 14.125V36.875C14 38.3516 15.1484 39.5 16.625 39.5H32.375C33.7969 39.5 35 38.3516 35 36.875V18.7188C35 18.0625 34.6719 17.3516 34.1797 16.8594ZM28 13.3047C28.1094 13.3594 28.2734 13.4141 28.3828 13.5234L32.9766 18.1172C33.0859 18.2266 33.1406 18.3906 33.1953 18.5H28V13.3047ZM33.25 36.875C33.25 37.3672 32.8125 37.75 32.375 37.75H16.625C16.1328 37.75 15.75 37.3672 15.75 36.875V14.125C15.75 13.6875 16.1328 13.25 16.625 13.25H20.9453V15H22.6953V13.25H26.25V18.9375C26.25 19.7031 26.7969 20.25 27.5625 20.25H33.25V36.875ZM24.5 22H22.75V23.75H24.5V22ZM24.5 18.5H22.75V20.25H24.5V18.5Z" fill="#EAEAEB"/>
</svg>
