<svg width="160" height="180" viewBox="0 0 160 180" fill="none" xmlns="http://www.w3.org/2000/svg">
<path d="M50.9943 137C50.7088 135.393 49.3963 134.153 47.5384 134.153C45.3352 134.153 43.767 135.905 43.767 138.636C43.767 141.368 45.3352 143.119 47.5384 143.119C49.3963 143.119 50.7088 141.875 50.9943 140.273H50.1932C49.9503 141.47 48.9062 142.369 47.5384 142.369C45.8849 142.369 44.5384 141.061 44.5384 138.636C44.5384 136.22 45.8849 134.903 47.5384 134.903C48.9062 134.903 49.9503 135.807 50.1932 137H50.9943ZM53.467 134.273H52.7085V143H53.467V134.273ZM58.0181 143.136C59.7141 143.136 60.8988 141.751 60.8988 139.757C60.8988 137.75 59.7141 136.365 58.0181 136.365C56.3221 136.365 55.1374 137.75 55.1374 139.757C55.1374 141.751 56.3221 143.136 58.0181 143.136ZM58.0181 142.442C56.6587 142.442 55.9002 141.223 55.9002 139.757C55.9002 138.291 56.6587 137.055 58.0181 137.055C59.3775 137.055 60.136 138.291 60.136 139.757C60.136 141.223 59.3775 142.442 58.0181 142.442ZM66.723 140.499C66.723 141.7 65.8196 142.348 64.9332 142.348C63.9872 142.348 63.3224 141.67 63.3224 140.648V136.455H62.5639V140.695C62.5639 142.246 63.4588 143.085 64.7159 143.085C65.6747 143.085 66.3565 142.587 66.6634 141.913H66.723V143H67.4815V136.455H66.723V140.499ZM71.8462 143.136C73.0352 143.136 73.5891 142.382 73.8576 141.786H73.9471V143H74.6886V134.273H73.9258V137.703H73.8576C73.5977 137.115 73.0565 136.365 71.859 136.365C70.244 136.365 69.1531 137.729 69.1531 139.744C69.1531 141.777 70.2397 143.136 71.8462 143.136ZM71.9357 142.442C70.6317 142.442 69.9158 141.257 69.9158 139.732C69.9158 138.223 70.6232 137.055 71.9357 137.055C73.2141 137.055 73.9386 138.163 73.9386 139.732C73.9386 141.312 73.2056 142.442 71.9357 142.442ZM87.1786 134.273H86.3945V141.589H86.3263L81.1531 134.273H80.3817V143H81.1786V135.692H81.2468L86.4031 143H87.1786V134.273ZM91.1694 143.149C92.2603 143.149 92.9251 142.544 93.1978 141.964H93.2447V143H94.0032V138.555C94.0032 136.8 92.6822 136.365 91.6808 136.365C90.6793 136.365 89.6481 136.761 89.2049 137.831L89.9251 138.091C90.1637 137.528 90.756 137.047 91.7021 137.047C92.695 137.047 93.2447 137.592 93.2447 138.487V138.641C93.2447 139.135 92.631 139.143 91.5316 139.28C90.0529 139.463 89.0174 139.876 89.0174 141.172C89.0174 142.433 89.9805 143.149 91.1694 143.149ZM91.2717 142.455C90.4151 142.455 89.7759 141.999 89.7759 141.206C89.7759 140.413 90.4237 140.081 91.5316 139.945C92.0685 139.881 93.0231 139.761 93.2447 139.544V140.49C93.2447 141.564 92.4819 142.455 91.2717 142.455ZM98.5991 136.455H97.2141V134.886H96.4513V136.455H95.4755V137.115H96.4513V141.47C96.4513 142.54 97.2951 143.098 98.1346 143.098C98.4499 143.098 98.663 143.038 98.8079 142.983L98.646 142.297C98.5394 142.327 98.4031 142.357 98.2028 142.357C97.6871 142.357 97.2141 142.114 97.2141 141.291V137.115H98.5991V136.455ZM100.33 143H101.093V136.455H100.33V143ZM100.718 135.33C101.029 135.33 101.289 135.082 101.289 134.784C101.289 134.486 101.029 134.239 100.718 134.239C100.407 134.239 100.151 134.486 100.151 134.784C100.151 135.082 100.407 135.33 100.718 135.33ZM108.166 136.455H107.343L105.4 141.999H105.341L103.397 136.455H102.575L104.966 143H105.775L108.166 136.455ZM112.062 143.136C113.374 143.136 114.256 142.425 114.555 141.602L113.835 141.368C113.583 141.956 112.991 142.442 112.062 142.442C110.724 142.442 109.876 141.466 109.842 139.953H114.717V139.578C114.717 137.392 113.366 136.365 111.947 136.365C110.251 136.365 109.079 137.784 109.079 139.766C109.079 141.751 110.229 143.136 112.062 143.136ZM109.846 139.284C109.927 138.065 110.749 137.055 111.947 137.055C113.119 137.055 113.941 138.023 113.941 139.284H109.846Z" fill="#94959A"/>
<path d="M98.1484 68.3047C98.3594 67.6016 98.5 66.8984 98.5 66.125C98.5 61.8359 94.9141 58.25 90.625 58.25C89.4297 58.25 88.3047 58.5312 87.25 59.0234C85 55.8594 81.2734 53.75 77.125 53.75C70.4453 53.75 65.0312 59.0234 64.75 65.6328C60.7422 67.0391 58 70.8359 58 75.125C58 80.75 62.5 85.25 68.125 85.25H94C98.9219 85.25 103 81.2422 103 76.25C103 72.9453 101.172 69.9219 98.1484 68.3047ZM94 83H68.125C63.7656 83 60.25 79.4844 60.25 75.125C60.25 71.1875 63.2031 67.8828 67.0703 67.3203C67 66.9688 67 66.5469 67 66.125C67 60.5703 71.5 56 77.125 56C81.3438 56 84.9297 58.6016 86.4766 62.3281C87.5312 61.2031 88.9375 60.5 90.625 60.5C93.7188 60.5 96.25 63.0312 96.25 66.125C96.25 67.4609 95.7578 68.6562 95.0547 69.6406C98.2891 70.1328 100.75 72.9453 100.75 76.25C100.75 79.9766 97.7266 83 94 83Z" fill="#94959A"/>
<circle cx="80" cy="71" r="40" stroke="#94959A" stroke-width="2"/>
</svg>
