<svg
	width="160"
	height="180"
	viewBox="0 0 160 180"
	fill="none"
	xmlns="http://www.w3.org/2000/svg"
>
	<path
		d="M35.9943 137C35.7088 135.393 34.3963 134.153 32.5384 134.153C30.3352 134.153 28.767 135.905 28.767 138.636C28.767 141.368 30.3352 143.119 32.5384 143.119C34.3963 143.119 35.7088 141.875 35.9943 140.273H35.1932C34.9503 141.47 33.9062 142.369 32.5384 142.369C30.8849 142.369 29.5384 141.061 29.5384 138.636C29.5384 136.22 30.8849 134.903 32.5384 134.903C33.9062 134.903 34.9503 135.807 35.1932 137H35.9943ZM40.2525 143.136C41.9485 143.136 43.1332 141.751 43.1332 139.757C43.1332 137.75 41.9485 136.365 40.2525 136.365C38.5565 136.365 37.3718 137.75 37.3718 139.757C37.3718 141.751 38.5565 143.136 40.2525 143.136ZM40.2525 142.442C38.8931 142.442 38.1346 141.223 38.1346 139.757C38.1346 138.291 38.8931 137.055 40.2525 137.055C41.6119 137.055 42.3704 138.291 42.3704 139.757C42.3704 141.223 41.6119 142.442 40.2525 142.442ZM44.7983 143H45.5568V138.807C45.5568 137.788 46.2344 137.064 47.142 137.064C48.0369 137.064 48.5568 137.661 48.5568 138.547V143H49.3324V138.692C49.3324 137.75 49.8949 137.064 50.892 137.064C51.7571 137.064 52.3324 137.584 52.3324 138.615V143H53.0909V138.615C53.0909 137.149 52.3366 136.369 51.1222 136.369C50.1676 136.369 49.4773 136.834 49.1832 137.558H49.1278C48.8381 136.817 48.2628 136.369 47.3594 136.369C46.5028 136.369 45.8636 136.783 45.6037 137.46H45.5355V136.455H44.7983V143ZM55.0991 143H55.8576V138.807C55.8576 137.788 56.5352 137.064 57.4428 137.064C58.3377 137.064 58.8576 137.661 58.8576 138.547V143H59.6332V138.692C59.6332 137.75 60.1957 137.064 61.1928 137.064C62.0579 137.064 62.6332 137.584 62.6332 138.615V143H63.3917V138.615C63.3917 137.149 62.6374 136.369 61.4229 136.369C60.4684 136.369 59.7781 136.834 59.484 137.558H59.4286C59.1388 136.817 58.5636 136.369 57.6602 136.369C56.8036 136.369 56.1644 136.783 55.9045 137.46H55.8363V136.455H55.0991V143ZM69.5589 140.499C69.5589 141.7 68.6555 142.348 67.7692 142.348C66.8232 142.348 66.1584 141.67 66.1584 140.648V136.455H65.3999V140.695C65.3999 142.246 66.2947 143.085 67.5518 143.085C68.5107 143.085 69.1925 142.587 69.4993 141.913H69.5589V143H70.3175V136.455H69.5589V140.499ZM73.0842 138.909C73.0842 137.767 73.8342 137.064 74.8654 137.064C75.8711 137.064 76.5188 137.737 76.5188 138.807V143H77.2773V138.76C77.2773 137.209 76.3782 136.369 75.0572 136.369C74.0984 136.369 73.4379 136.812 73.131 137.482H73.0629V136.455H72.3256V143H73.0842V138.909ZM79.2834 143H80.0462V136.455H79.2834V143ZM79.6712 135.33C79.9822 135.33 80.2422 135.082 80.2422 134.784C80.2422 134.486 79.9822 134.239 79.6712 134.239C79.3601 134.239 79.1044 134.486 79.1044 134.784C79.1044 135.082 79.3601 135.33 79.6712 135.33ZM84.6303 136.455H83.2454V134.886H82.4826V136.455H81.5067V137.115H82.4826V141.47C82.4826 142.54 83.3263 143.098 84.1658 143.098C84.4812 143.098 84.6942 143.038 84.8391 142.983L84.6772 142.297C84.5707 142.327 84.4343 142.357 84.234 142.357C83.7184 142.357 83.2454 142.114 83.2454 141.291V137.115H84.6303V136.455ZM86.8814 145.455C87.6996 145.455 88.3004 144.986 88.6499 144.036L91.424 136.467L90.5973 136.455L88.6541 141.999H88.5945L86.6513 136.455H85.8288L88.2365 143.064L87.9979 143.729C87.6357 144.717 87.1243 144.892 86.353 144.649L86.1484 145.318C86.3018 145.391 86.5831 145.455 86.8814 145.455ZM98.9933 143C101.618 143 103.114 141.359 103.118 138.615C103.118 135.901 101.644 134.273 99.1467 134.273H96.4364V143H98.9933ZM97.2333 142.284V134.989H99.0998C101.218 134.989 102.343 136.357 102.347 138.615C102.347 140.895 101.196 142.284 98.9464 142.284H97.2333ZM104.892 143H105.651V138.773C105.651 137.801 106.396 137.098 107.419 137.098C107.619 137.098 107.807 137.132 107.875 137.141V136.369C107.773 136.365 107.598 136.357 107.474 136.357C106.652 136.357 105.949 136.8 105.685 137.46H105.629V136.455H104.892V143ZM109.178 143H109.941V136.455H109.178V143ZM109.566 135.33C109.877 135.33 110.137 135.082 110.137 134.784C110.137 134.486 109.877 134.239 109.566 134.239C109.255 134.239 108.999 134.486 108.999 134.784C108.999 135.082 109.255 135.33 109.566 135.33ZM117.013 136.455H116.191L114.248 141.999H114.188L112.245 136.455H111.423L113.813 143H114.623L117.013 136.455ZM120.909 143.136C122.222 143.136 123.104 142.425 123.402 141.602L122.682 141.368C122.431 141.956 121.838 142.442 120.909 142.442C119.571 142.442 118.723 141.466 118.689 139.953H123.564V139.578C123.564 137.392 122.213 136.365 120.794 136.365C119.098 136.365 117.926 137.784 117.926 139.766C117.926 141.751 119.077 143.136 120.909 143.136ZM118.694 139.284C118.775 138.065 119.597 137.055 120.794 137.055C121.966 137.055 122.789 138.023 122.789 139.284H118.694ZM125.994 138.909C125.994 137.767 126.744 137.064 127.776 137.064C128.781 137.064 129.429 137.737 129.429 138.807V143H130.188V138.76C130.188 137.209 129.288 136.369 127.967 136.369C127.009 136.369 126.348 136.812 126.041 137.482H125.973V136.455H125.236V143H125.994V138.909Z"
		fill="#94959A"
	/>
	<path
		d="M96.25 68.25C99.3438 68.25 101.875 65.7891 101.875 62.625C101.875 59.5312 99.3438 57 96.25 57C93.0859 57 90.625 59.5312 90.625 62.625C90.625 65.7891 93.0859 68.25 96.25 68.25ZM96.25 59.25C98.0781 59.25 99.625 60.7969 99.625 62.625C99.625 64.5234 98.0781 66 96.25 66C94.3516 66 92.875 64.5234 92.875 62.625C92.875 60.7969 94.3516 59.25 96.25 59.25ZM80.5 70.5C84.7891 70.5 88.375 66.9844 88.375 62.625C88.375 58.3359 84.7891 54.75 80.5 54.75C76.1406 54.75 72.625 58.3359 72.625 62.625C72.625 66.9844 76.1406 70.5 80.5 70.5ZM80.5 57C83.5938 57 86.125 59.5312 86.125 62.625C86.125 65.7891 83.5938 68.25 80.5 68.25C77.3359 68.25 74.875 65.7891 74.875 62.625C74.875 59.5312 77.3359 57 80.5 57ZM97.6562 70.5H94.8438C93.7188 70.5 92.7344 70.8516 91.8906 71.4141C92.5938 71.9062 93.1562 72.3984 93.7188 73.0312C94.0703 72.8906 94.4219 72.75 94.8438 72.75H97.6562C99.3438 72.75 100.75 74.2969 100.75 76.125C100.75 76.7578 101.242 77.25 101.875 77.25C102.438 77.25 103 76.7578 103 76.125C103 73.0312 100.539 70.5 97.6562 70.5ZM64.75 68.25C67.8438 68.25 70.375 65.7891 70.375 62.625C70.375 59.5312 67.8438 57 64.75 57C61.5859 57 59.125 59.5312 59.125 62.625C59.125 65.7891 61.5859 68.25 64.75 68.25ZM64.75 59.25C66.5781 59.25 68.125 60.7969 68.125 62.625C68.125 64.5234 66.5781 66 64.75 66C62.8516 66 61.375 64.5234 61.375 62.625C61.375 60.7969 62.8516 59.25 64.75 59.25ZM86.125 71.9062C83.7344 71.9062 83.1719 72.75 80.5 72.75C77.7578 72.75 77.1953 71.9062 74.8047 71.9062C72.2734 71.9062 69.8125 73.1016 68.3359 75.2109C67.4922 76.5469 67 78.0938 67 79.7812V82.875C67 84.7734 68.4766 86.25 70.375 86.25H90.625C92.4531 86.25 94 84.7734 94 82.875V79.7812C94 78.0938 93.4375 76.5469 92.5938 75.2109C91.1172 73.1016 88.6562 71.9062 86.125 71.9062ZM91.75 82.875C91.75 83.5078 91.1875 84 90.625 84H70.375C69.7422 84 69.25 83.5078 69.25 82.875V79.7812C69.25 78.5859 69.5312 77.4609 70.2344 76.4766C71.1484 75.0703 72.9062 74.1562 74.8047 74.1562C76.7734 74.1562 77.4766 75 80.5 75C83.5234 75 84.1562 74.1562 86.125 74.1562C88.0234 74.1562 89.7812 75.0703 90.6953 76.4766C91.3984 77.4609 91.6797 78.5859 91.6797 79.7812V82.875H91.75ZM69.0391 71.4141C68.1953 70.8516 67.2109 70.5 66.1562 70.5H63.3438C60.3906 70.5 58 73.0312 58 76.125C58 76.7578 58.4922 77.25 59.125 77.25C59.6875 77.25 60.25 76.7578 60.25 76.125C60.25 74.2969 61.5859 72.75 63.3438 72.75H66.1562C66.5078 72.75 66.8594 72.8906 67.2109 73.0312C67.7734 72.3984 68.3359 71.9062 69.0391 71.4141Z"
		fill="#94959A"
	/>
	<circle cx="80" cy="71" r="40" stroke="#94959A" stroke-width="2" />
</svg>
