<svg width="104" height="104" viewBox="0 0 104 104" fill="none" xmlns="http://www.w3.org/2000/svg">
<path d="M69.3171 98.6061L68.7989 97.1984L68.7968 97.1992L69.3171 98.6061ZM87.3659 86.8485L86.3084 85.7846C86.3044 85.7886 86.3005 85.7926 86.2965 85.7966L87.3659 86.8485ZM16.6341 16.5455L17.6916 17.6093L17.6916 17.6093L16.6341 16.5455ZM16.6341 86.8485L15.5767 87.9124L15.5767 87.9124L16.6341 86.8485ZM37.3279 100.899C38.1257 101.122 38.9533 100.656 39.1763 99.8584C39.3994 99.0605 38.9334 98.233 38.1355 98.0099L37.3279 100.899ZM53.1624 100.501C52.3346 100.533 51.6891 101.229 51.7206 102.057C51.7521 102.885 52.4488 103.53 53.2766 103.499L53.1624 100.501ZM54.7195 27.4643C54.7249 26.6359 54.0577 25.96 53.2293 25.9546C52.4009 25.9492 51.725 26.6163 51.7195 27.4447L54.7195 27.4643ZM52.9764 64.6667L51.4764 64.6569V64.6667H52.9764ZM51.5984 101.646C51.6039 102.475 52.28 103.142 53.1084 103.136C53.9368 103.131 54.6039 102.455 54.5984 101.626L51.5984 101.646ZM34.7714 62.8822C34.1875 62.2945 33.2378 62.2914 32.6501 62.8753C32.0624 63.4592 32.0593 64.409 32.6432 64.9966L34.7714 62.8822ZM52.1933 62.8454C51.5891 63.4121 51.5587 64.3614 52.1255 64.9656C52.6923 65.5698 53.6415 65.6002 54.2457 65.0334L52.1933 62.8454ZM73.7579 46.7304C74.3621 46.1636 74.3925 45.2144 73.8257 44.6101C73.259 44.0059 72.3097 43.9756 71.7055 44.5423L73.7579 46.7304ZM69.8353 100.014C76.6312 97.5119 82.9163 93.5105 88.4352 87.9004L86.2965 85.7966C81.0837 91.0955 75.1737 94.8517 68.7989 97.1984L69.8353 100.014ZM88.4233 87.9124C98.4627 77.9338 103.5 65.7933 103.5 51.697H100.5C100.5 64.9946 95.7812 76.3692 86.3084 85.7846L88.4233 87.9124ZM103.5 51.697C103.5 37.4775 98.4613 25.4588 88.4233 15.4816L86.3084 17.6093C95.7826 27.0261 100.5 38.2801 100.5 51.697H103.5ZM88.4233 15.4816C78.3842 5.50331 66.1739 0.5 52 0.5V3.5C65.387 3.5 76.8353 8.19366 86.3084 17.6093L88.4233 15.4816ZM52 0.5C37.8261 0.5 25.6158 5.50331 15.5767 15.4816L17.6916 17.6093C27.1647 8.19366 38.613 3.5 52 3.5V0.5ZM15.5767 15.4816C5.53729 25.4602 0.5 37.6007 0.5 51.697H3.5C3.5 38.3993 8.21881 27.0247 17.6916 17.6093L15.5767 15.4816ZM0.5 51.697C0.5 65.7933 5.53729 77.9338 15.5767 87.9124L17.6916 85.7846C8.21881 76.3692 3.5 64.9946 3.5 51.697H0.5ZM15.5767 87.9124C21.9607 94.2577 29.2537 98.6421 37.3279 100.899L38.1355 98.0099C30.5999 95.9034 23.7466 91.8029 17.6916 85.7846L15.5767 87.9124ZM53.2766 103.499C58.6987 103.292 65.0921 101.768 69.8374 100.013L68.7968 97.1992C64.2732 98.8722 58.1965 100.309 53.1624 100.501L53.2766 103.499ZM51.7195 27.4447L51.4765 64.6569L54.4764 64.6765L54.7195 27.4643L51.7195 27.4447ZM54.4764 83.3333V64.6667H51.4764V83.3333H54.4764ZM54.5984 101.626L54.4764 83.3233L51.4765 83.3433L51.5984 101.646L54.5984 101.626ZM54.0405 82.2761L34.7714 62.8822L32.6432 64.9966L51.9124 84.3906L54.0405 82.2761ZM54.2457 65.0334L73.7579 46.7304L71.7055 44.5423L52.1933 62.8454L54.2457 65.0334ZM59.0366 27.4545C59.0366 30.6342 56.4408 33.2273 53.2195 33.2273V36.2273C58.0804 36.2273 62.0366 32.3082 62.0366 27.4545H59.0366ZM53.2195 33.2273C49.9982 33.2273 47.4024 30.6342 47.4024 27.4545H44.4024C44.4024 32.3082 48.3586 36.2273 53.2195 36.2273V33.2273ZM47.4024 27.4545C47.4024 24.2749 49.9982 21.6818 53.2195 21.6818V18.6818C48.3586 18.6818 44.4024 22.6009 44.4024 27.4545H47.4024ZM53.2195 21.6818C56.4408 21.6818 59.0366 24.2749 59.0366 27.4545H62.0366C62.0366 22.6009 58.0804 18.6818 53.2195 18.6818V21.6818ZM78.5488 45.6364C78.5488 48.816 75.953 51.4091 72.7317 51.4091V54.4091C77.5926 54.4091 81.5488 50.49 81.5488 45.6364H78.5488ZM72.7317 51.4091C69.5104 51.4091 66.9146 48.816 66.9146 45.6364H63.9146C63.9146 50.49 67.8708 54.4091 72.7317 54.4091V51.4091ZM66.9146 45.6364C66.9146 42.4568 69.5104 39.8636 72.7317 39.8636V36.8636C67.8708 36.8636 63.9146 40.7827 63.9146 45.6364H66.9146ZM72.7317 39.8636C75.953 39.8636 78.5488 42.4568 78.5488 45.6364H81.5488C81.5488 40.7827 77.5926 36.8636 72.7317 36.8636V39.8636ZM39.5244 63.8182C39.5244 66.9978 36.9286 69.5909 33.7073 69.5909V72.5909C38.5682 72.5909 42.5244 68.6718 42.5244 63.8182H39.5244ZM33.7073 69.5909C30.486 69.5909 27.8902 66.9978 27.8902 63.8182H24.8902C24.8902 68.6718 28.8464 72.5909 33.7073 72.5909V69.5909ZM27.8902 63.8182C27.8902 60.6386 30.486 58.0455 33.7073 58.0455V55.0455C28.8464 55.0455 24.8902 58.9646 24.8902 63.8182H27.8902ZM33.7073 58.0455C36.9286 58.0455 39.5244 60.6386 39.5244 63.8182H42.5244C42.5244 58.9646 38.5682 55.0455 33.7073 55.0455V58.0455Z" fill="#94959A"/>
<path d="M37.3659 63.8181C37.3659 65.8264 35.7279 67.4545 33.7074 67.4545C31.6868 67.4545 30.0488 65.8264 30.0488 63.8181C30.0488 61.8098 31.6868 60.1818 33.7074 60.1818C35.7279 60.1818 37.3659 61.8098 37.3659 63.8181Z" fill="#94959A"/>
<ellipse cx="72.7317" cy="45.6364" rx="3.65854" ry="3.63636" fill="#94959A"/>
<ellipse cx="53.2196" cy="27.4546" rx="3.65854" ry="3.63636" fill="#94959A"/>
</svg>
