<svg
	width="213"
	height="28"
	viewBox="0 0 213 28"
	fill="none"
	xmlns="http://www.w3.org/2000/svg"
>
	<path
		d="M212.074 9.57175C211.987 9.47691 211.895 9.38709 211.799 9.30273C211.925 9.71608 211.903 10.1613 211.735 10.5595C211.906 10.4692 212.036 10.3167 212.099 10.1332C212.162 9.9497 212.153 9.74891 212.074 9.57175V9.57175Z"
		fill="#EE4747"
	/>
	<path
		d="M212.305 11.0255C212.135 10.8543 211.942 10.7083 211.731 10.5919V10.5598L211.695 10.5799C211.599 10.5277 211.496 10.4715 211.384 10.4193L211.292 10.3791C211.42 10.3062 211.515 10.1878 211.56 10.0473C211.605 9.90682 211.597 9.75446 211.535 9.62025C211.282 9.32336 210.939 9.11762 210.559 9.03404C210.356 8.97783 210.352 8.98184 210.236 8.95374L210.077 8.92563C209.758 8.87745 209.638 8.86942 209.479 8.85336L209.08 8.82124H208.725C207.761 8.60041 206.8 8.41972 205.839 8.22298L205.803 7.86564L205.867 7.62875L205.433 7.51633L205.763 7.4842V7.45609L205.345 7.49224C204.998 7.39989 204.647 7.31155 204.301 7.22724H204.384L204.719 7.28746L204.448 7.2192L205.728 7.10277L205.668 6.49246L202.598 6.77754C201.687 6.56876 200.777 6.37469 199.868 6.19534C200.051 6.13913 200.235 6.07489 200.438 6.00261C200.705 5.90178 200.965 5.78238 201.215 5.64527C201.552 5.48413 201.84 5.23446 202.048 4.92254C202.113 4.822 202.147 4.70491 202.147 4.58527C202.147 4.46564 202.113 4.34854 202.048 4.248C201.892 4.04207 201.682 3.88367 201.442 3.79028C201.099 3.64605 200.739 3.54621 200.37 3.49316C199.881 3.41963 199.389 3.37139 198.895 3.34862C198.022 3.30847 197.229 3.31248 196.436 3.32051C195.643 3.32854 194.877 3.35665 194.108 3.38475C192.573 3.44096 191.058 3.52127 189.548 3.6096C188.396 3.67786 187.248 3.75816 186.1 3.83846C183.66 3.53331 181.135 3.26564 178.526 3.03544L199.884 0.517943C192.653 1.35309 185.419 2.18289 178.183 3.00733C177.446 2.9471 176.7 2.88688 175.951 2.83468C183.891 1.88979 191.83 0.944894 199.768 0L175.165 2.78248C173.356 2.654 171.522 2.54559 169.645 2.45324C161.234 2.05173 152.129 1.97545 142.499 2.17219C131.337 2.39703 119.502 2.97521 107.177 3.86255C90.6142 4.76997 74.0914 6.04277 57.5926 7.56049C49.3544 8.31801 41.1163 9.14111 32.8781 10.0298C24.6347 10.9211 16.4271 11.8567 8.16372 12.9046C18.7511 11.6318 29.2906 10.5196 39.858 9.48374C50.4254 8.44783 60.9848 7.52033 71.5881 6.69322C61.0087 7.60331 50.4413 8.62048 39.8859 9.74472C29.3225 10.869 18.7949 12.0655 8.23149 13.4266L8.3152 14.0931C15.9727 13.1295 23.5983 12.2582 31.2478 11.4271L28.0588 11.9209C21.4856 12.6637 14.9323 13.4346 8.35107 14.2778V14.3099C13.9317 13.6273 19.5124 13.005 25.0931 12.3987C23.9052 12.5995 22.7094 12.8109 21.5055 13.0331C17.1207 13.5591 12.7638 14.0931 8.37898 14.6713L8.45472 15.2776L11.3048 14.9082L11.4244 15.6911C11.303 15.7602 11.1859 15.8366 11.0737 15.92C10.943 16.0154 10.824 16.1259 10.7189 16.2492C10.539 16.4437 10.4149 16.6838 10.3601 16.9438C10.3322 17.0965 10.3322 17.253 10.3601 17.4056L6.17062 17.7188L3.80681 17.9035L2.61095 18.0038L1.9054 18.0681H1.83763H1.77385C1.0962 18.317 3.18098 17.522 0 18.6623C0.330854 19.8669 0.617853 20.9429 0.876956 21.8744C0.873062 22.2526 0.975322 22.6242 1.17194 22.9465C4.06592 33.438 1.7021 23.7736 2.57109 27.2065H2.69865H2.87404L3.18098 27.1784L104.574 18.0721L119.877 16.6829C123.52 16.5008 127.124 16.3295 130.687 16.1689C146.58 15.4743 161.616 15.0005 175.237 14.9644C182.042 14.9644 188.503 15.0527 194.443 15.386C195.415 15.4422 196.373 15.5051 197.317 15.5747C198.855 15.9762 200.39 16.3777 201.913 16.7792L203.236 16.2011C204.289 16.3576 205.285 16.5383 206.122 16.7471C206.147 16.7867 206.166 16.8301 206.178 16.8756V16.8957L206.401 16.9278C206.409 16.8894 206.409 16.8498 206.401 16.8114L206.549 16.8515C206.551 16.8836 206.551 16.9158 206.549 16.9479L207.043 17.0242C207.187 17.0763 207.314 17.1285 207.41 17.1727C207.477 17.2006 207.54 17.237 207.597 17.2811H208.075C208.072 17.2531 208.061 17.2266 208.044 17.2048H208.083C208.098 17.1319 208.109 17.0581 208.115 16.984L208.163 17.0081C208.221 17.0422 208.274 17.0856 208.319 17.1366V17.1647C208.317 17.1914 208.317 17.2182 208.319 17.245H208.343C208.343 17.245 208.343 17.2088 208.343 17.1928C208.351 17.2136 208.358 17.2351 208.362 17.257L209.423 17.2169C209.391 16.8876 208.933 16.6066 208.347 16.3697C208.33 16.2717 208.306 16.1751 208.275 16.0806C208.311 16.0902 208.347 16.1023 208.382 16.1167C208.729 16.2323 209.061 16.3887 209.371 16.5825C209.491 16.6443 209.597 16.7316 209.681 16.8383C209.765 16.945 209.825 17.0686 209.857 17.2008C210.463 17.2008 211.053 17.1727 211.655 17.1687C211.608 16.9527 211.517 16.7489 211.388 16.57C211.259 16.391 211.095 16.2408 210.906 16.1288C210.722 15.9982 210.531 15.8802 210.332 15.7754H210.989C211.105 15.8437 211.217 15.92 211.328 16.0003C211.545 16.1544 211.738 16.3413 211.898 16.5544C212.034 16.7344 212.123 16.9455 212.157 17.1687H212.209C212.165 16.8864 212.039 16.6236 211.846 16.4139C211.624 16.1646 211.365 15.9519 211.077 15.7835V15.7835H211.292C211.404 15.4101 211.097 15.0206 210.651 14.7034C210.201 14.4086 209.715 14.1763 209.204 14.0128L208.773 13.8803L209.068 13.7639L209.196 13.7117L209.502 13.808C210.065 13.9878 210.602 14.243 211.097 14.5669C211.323 14.7208 211.519 14.9155 211.675 15.1411C211.739 15.2375 211.789 15.3431 211.822 15.4542C211.844 15.5043 211.855 15.5583 211.855 15.6128C211.855 15.6674 211.844 15.7213 211.822 15.7714H211.878C212.002 15.2655 211.508 14.7395 210.838 14.3461C210.332 14.0661 209.797 13.8427 209.243 13.6795C209.926 13.4119 210.615 13.1442 211.308 12.8765L211.862 12.6035C211.938 12.5695 212.008 12.5234 212.07 12.467L212.241 12.3264C212.343 12.2543 212.428 12.1596 212.488 12.0494C212.546 11.953 212.582 11.8445 212.592 11.7322C212.597 11.6006 212.574 11.4693 212.525 11.3473C212.475 11.2253 212.4 11.1156 212.305 11.0255ZM209.295 11.0858H209.243H209.283C209.283 11.0858 209.283 11.0777 209.283 11.0858H209.295ZM208.897 10.869H208.944H209.132C209.176 10.9252 209.208 10.9814 209.243 11.0376H209.14L208.781 10.9493L208.693 10.8529L208.897 10.869ZM208.406 10.8328L208.494 10.8649H208.514V10.8288H208.566L208.638 10.9011L208.279 10.8127L208.406 10.8328ZM207.083 11.3468L207.139 11.3668L207.083 11.3468C207.253 11.3777 207.421 11.4206 207.585 11.4752C207.642 11.4931 207.696 11.516 207.749 11.5435C207.722 11.5835 207.684 11.6154 207.641 11.6358L207.242 11.8205L206.23 12.3064L205.724 12.0052L206.413 11.672L206.963 11.407C206.963 11.407 207.011 11.407 206.995 11.3749L206.975 11.3548L206.923 11.3227L207.083 11.3468ZM204.643 13.013L204.217 12.7882L204.368 12.7079H204.408L204.871 12.9488L204.735 13.005L204.643 13.013ZM204.707 14.1975H204.619L204.663 14.1774L204.707 14.1975ZM204.596 14.1292L204.52 14.1694L204.297 14.1373L204.472 14.061L204.596 14.1292ZM203.834 12.5995L203.878 12.467L204.149 12.5955L204.065 12.6316L203.834 12.5995ZM203.986 12.6557H203.962H203.926H203.986ZM204.847 11.5676L205.002 11.6439H204.42L204.285 11.5796L204.173 11.5274V11.5074L204.847 11.5676ZM204.197 11.4552L204.257 11.2825L204.396 11.3427L204.735 11.5154L204.197 11.4552ZM204.95 11.5796L205.233 11.6077L205.596 11.6559H205.078L204.95 11.5796ZM204.396 12.6718L204.221 12.5874H204.257L204.424 12.6718H204.396ZM204.448 12.6718L204.496 12.6958H204.42L204.448 12.6718ZM204.277 12.6718L204.105 12.6477L204.169 12.6196L204.277 12.6718ZM204.221 12.5674H204.185L203.874 12.4148V12.3867L204.221 12.5674ZM204.041 12.6758L204.336 12.7159L204.197 12.7882L203.998 12.6918L204.041 12.6758ZM204.5 12.732H204.576L204.95 12.9287H204.922L204.5 12.732ZM204.42 11.6439H205.002C205.204 11.7483 205.407 11.8567 205.612 11.9691L205.313 12.0936C205.034 11.929 204.735 11.7844 204.436 11.6399L204.42 11.6439ZM205.162 15.3579L205.261 15.4261L205.52 15.6189L205.197 15.5586L205.006 15.4261L205.162 15.3579ZM205.349 12.1217L205.648 11.9972H205.676L205.405 12.1337L205.349 12.1217ZM205.648 11.9611C205.461 11.8527 205.269 11.7523 205.078 11.6519H205.604L205.975 11.7001L206.186 11.7282L205.648 11.9611ZM205.963 11.668H206.361L206.274 11.7121H206.226L205.963 11.668ZM206.035 11.8366L205.712 11.9932H205.688L206.035 11.8366ZM206.202 11.2102L206.776 11.2946H206.812L206.864 11.3227L206.959 11.3789C206.76 11.4712 206.561 11.5716 206.365 11.668H205.967L205.046 11.5515L204.855 11.5315L204.285 11.2544L204.324 11.1219H205.592L206.202 11.2102ZM204.289 10.2868H204.615L204.703 10.3229L204.289 10.2868ZM205.815 10.4514L204.867 10.351L204.747 10.2988L205.325 10.3189L205.815 10.4514ZM203.563 7.29549L204.615 7.55647L202.838 7.71306C202.343 7.63678 201.853 7.5645 201.363 7.50026L203.563 7.29549ZM200.585 13.535L201.02 13.7077L200.557 13.6595L200.585 13.535ZM200.561 11.0777H200.705L201.004 11.1861H200.876L200.801 11.1661L200.561 11.0777ZM201.004 12.5593L200.761 12.5352V12.4268L201.159 12.5754L201.004 12.5593ZM201.092 11.2383H201.167L201.387 11.3187L201.092 11.2383ZM201.733 13.5671L201.785 13.5912H201.765L201.319 13.547L201.219 13.5069L201.733 13.5671ZM201.686 13.6354L201.606 13.6675L201.462 13.6113L201.686 13.6354ZM201.733 13.6354H201.833H201.961L202.307 13.7799L202.244 13.8201L201.969 13.788C201.861 13.7398 201.745 13.6996 201.634 13.6514L201.733 13.6354ZM202.323 13.812L202.455 13.8683L202.264 13.8442L202.323 13.812ZM199.744 6.21141L200.589 6.37201C201.203 6.49648 201.817 6.62898 202.435 6.77352L202.036 6.80966L201.267 6.68519L201.789 6.83375L199.828 7.01443L199.744 6.47239C200.251 6.54065 200.757 6.6089 201.267 6.68519C200.757 6.54065 200.239 6.40413 199.712 6.28368V6.24352L199.744 6.21141ZM179.415 13.8602C182.875 13.8602 186.331 13.9285 189.779 14.0409C193.032 14.1533 196.276 14.3139 199.477 14.599L199.079 14.7717C196.001 14.5026 192.872 14.342 189.735 14.2336C182.412 13.9887 175.034 13.9967 167.659 14.0891C161.994 14.1667 156.328 14.3006 150.662 14.4906C160.727 14.1574 170.334 13.9365 179.411 13.8763L179.415 13.8602ZM186.634 12.752L184.346 12.7119H188.443H188.762C190.875 12.7842 192.98 12.8765 195.08 13.001H193.833C191.425 12.9006 189.029 12.8243 186.63 12.7681L186.634 12.752ZM191.816 12.9729L188.667 12.9368C185.874 12.8431 183.077 12.7775 180.276 12.74C183.935 12.7601 187.602 12.8203 191.274 12.9488L191.816 12.9729ZM188.555 11.8286L186.163 11.7603L191.066 11.676C192.395 11.7322 193.713 11.7978 195.021 11.8727L195.216 11.9209C192.992 11.8727 190.771 11.842 188.555 11.8286ZM191.832 11.668L194.064 11.6399L194.801 11.8205C193.805 11.7603 192.812 11.7121 191.824 11.668H191.832ZM191.477 11.668L189.902 11.6037L193.414 11.6479L191.477 11.668ZM190.281 11.668H190.68L185.545 11.7483C182.861 11.6787 180.177 11.6359 177.493 11.6198C181.092 11.5796 184.691 11.5676 188.292 11.5837L190.281 11.668ZM171.837 10.62L182.201 9.66843L182.962 9.76479L177.86 10.2265L171.837 10.62ZM171.39 10.5196L178.757 9.62427L180.407 9.46767L181.687 9.60821L171.39 10.5196ZM171.789 10.7766L170.27 10.9131L169.413 10.9372H168.453H168.054L169.294 10.8248L171.789 10.7766ZM195.22 11.6559H195.643H195.698H195.22ZM195.838 11.7001L196.838 11.9691L196.252 11.933C195.945 11.8487 195.635 11.7683 195.324 11.6921L195.838 11.7001ZM197.6 11.6399H198.265L198.612 11.7443L197.859 11.7202L197.6 11.6399ZM198.923 12.0414L198.62 11.945L197.974 11.7563L198.728 11.7764C199.027 11.8687 199.322 11.9651 199.621 12.0655L198.923 12.0414ZM198.576 9.10631H198.417L198.261 9.06214L199.35 8.96176L199.796 9.05412L198.576 9.10631ZM199.772 8.24306H199.677L199.047 8.1226L199.25 8.10253L199.772 8.24306ZM198.054 7.84155L198.421 7.90579L199.099 8.07844L198.863 8.10253L197.703 7.87367L198.054 7.84155ZM198.098 9.09025L198.257 9.12638L197.711 9.15449L197.624 9.13442L198.098 9.09025ZM197.536 9.14245H197.608H197.548H197.504H197.536ZM198.253 11.6399H197.564C196.963 11.4659 196.357 11.3012 195.746 11.146H196.464C197.058 11.2624 197.648 11.4271 198.238 11.6037L198.253 11.6399ZM196.26 8.39564L196.579 8.45185H196.117L195.937 8.40769L196.232 8.37958L196.26 8.39564ZM195.949 8.34344H195.635L194.941 8.16677L195.949 8.34344ZM195.332 8.47995H195.415H195.112H195.084H195.332ZM194.885 8.45185L194.69 8.40769H194.933L195.08 8.4398L194.885 8.45185ZM194.012 8.21897L194.698 8.35549H194.471L193.928 8.227L194.012 8.21897ZM193.614 11.1661C194.243 11.3066 194.869 11.4552 195.483 11.6077L195.639 11.6519H195.176C194.493 11.4833 193.81 11.324 193.127 11.1741L193.614 11.1661ZM193.956 11.6439C192.165 11.6171 190.375 11.5957 188.587 11.5796L186.307 11.5074C184.513 11.4619 182.717 11.4271 180.918 11.403C184.564 11.3146 188.211 11.2437 191.86 11.1902C192.541 11.2986 193.227 11.4512 193.916 11.6077L193.956 11.6439ZM189.36 10.4072H189.87L190.094 10.4514H189.568L189.292 10.3992L189.36 10.4072ZM187.945 10.4835H187.881C185.782 10.521 183.68 10.5638 181.575 10.612L182.931 10.4835L187.415 10.3912L187.945 10.4835ZM186.574 9.27896L187.295 9.37934L187.04 9.40343L186.363 9.29904L186.574 9.27896ZM184.928 9.06214L186.159 9.22276H185.964L184.768 9.05813L184.928 9.06214ZM184.071 9.50783L184.812 9.60821L184.378 9.64434L183.664 9.54798L184.071 9.50783ZM183.178 9.48776L181.954 9.33518L182.384 9.29503L183.608 9.4476L183.178 9.48776ZM175.225 3.46506C177.133 3.59354 179.04 3.74746 180.945 3.9268C181.535 3.98301 182.141 4.04323 182.711 4.10747L182.313 4.13558C179.679 3.90538 177.046 3.71399 174.412 3.56142L175.225 3.46506ZM172.335 3.30846L174.815 3.43695L173.978 3.53331L171.646 3.38877L172.335 3.30846ZM172.208 4.95467L171.873 4.98278L171.315 4.95467H171.028L171.634 5.00285C168.663 5.27053 165.698 5.5382 162.74 5.80588C157.798 6.25825 152.853 6.72401 147.908 7.20315C147.007 7.26337 146.102 7.31958 145.201 7.38382H146.166L145.524 7.44806L144.129 7.47215C140.374 7.73983 136.622 8.04632 132.872 8.39162L139.712 7.5886C141.183 7.54041 142.658 7.49223 144.129 7.45609L145.201 7.37981H144.607C143.152 7.41595 141.697 7.46413 140.242 7.51633L161.134 5.10725C164.427 5.01891 167.725 4.96805 171.028 4.95467L170.514 4.91452L171.311 4.95467C171.574 4.91452 171.873 4.91854 172.168 4.91854L172.208 4.95467ZM111.621 10.7445L125.007 9.21874C126.478 9.1304 127.949 9.04207 129.42 8.96176C123.488 9.55065 117.556 10.1449 111.621 10.7445ZM112.618 11.6439H112.419L111.928 11.672L112.116 11.6519L112.618 11.6439ZM103.482 11.3949L101.293 11.5154C112.16 10.2734 123.023 9.02334 133.884 7.76526C135.08 7.71307 136.276 7.6689 137.472 7.62473C126.151 8.88816 114.825 10.1449 103.494 11.3949H103.482ZM169.031 3.12377L171.259 3.22415L170.637 3.2924C166.77 3.07558 162.905 2.93239 159.041 2.86279C162.382 2.91097 165.71 2.99127 169.043 3.12377H169.031ZM155.374 5.25581C156.821 5.19959 158.272 5.15542 159.719 5.11125C152.475 5.93569 145.23 6.75345 137.986 7.56451C136.75 7.61269 135.511 7.66488 134.275 7.72109C141.32 6.90736 148.357 6.0856 155.386 5.25581H155.374ZM131.732 5.65732L138.134 5.55292L135.698 5.63724L129.95 5.73761L131.732 5.65732ZM116.006 6.13512C119.195 6.00664 122.371 5.89554 125.533 5.80186L123.867 5.89421C112.833 6.24754 103.374 6.81367 96.5297 7.2714C92.61 7.53907 88.6942 7.82415 84.7824 8.12662C92.0054 7.54041 103.123 6.70928 116.006 6.13512ZM29.9044 18.9835L34.3132 18.7185L33.6196 18.7988L29.5337 19.0438L29.9044 18.9835ZM24.0089 19.3409L27.9113 19.108L27.5127 19.1562L23.5624 19.4011L24.0089 19.3409ZM24.4473 20.69L21.956 20.9429L17.9379 21.2601L21.3421 20.9188L24.4473 20.69ZM2.16051 20.8345C2.28461 20.8312 2.40726 20.8068 2.52326 20.7622H2.73851L5.07044 20.5896L9.7901 20.2684L19.5084 19.634L23.3073 19.4051L22.9087 19.4734C16.3793 19.8749 10.1847 20.2764 4.39278 20.6779L2.61892 20.8104H2.38773H2.26416L2.16051 20.8345ZM2.27611 22.4125H2.30402C2.30583 22.4445 2.30583 22.4767 2.30402 22.5088V22.5088C2.3399 22.561 2.30402 22.5088 2.2801 22.5088C2.25619 22.5088 2.24423 22.3683 2.2522 22.3964L2.27611 22.4125ZM2.308 22.814H2.3399C2.34155 22.8461 2.34155 22.8782 2.3399 22.9103H2.31996C2.31996 23.1432 2.31996 22.9706 2.28408 22.7658C2.27611 22.7698 2.27611 22.7698 2.28408 22.7979L2.308 22.814ZM2.308 24.4602L2.33591 24.4963H2.39969C2.37178 24.7774 2.37577 25.1789 2.27212 24.4441L2.308 24.4602ZM21.4617 22.826L4.16557 24.3759L3.02153 24.4762L2.39172 24.5244V24.4843H2.46746H2.53122H2.64683H2.86608L3.73107 24.408L7.10738 24.1109L13.5331 23.5367L25.0094 22.5008L49.0581 20.2925L21.4617 22.826ZM54.878 17.5501L53.5665 17.6264L54.6388 17.514L55.9383 17.4417L54.878 17.5501ZM38.6342 15.402H38.5505L56.4366 13.2981C63.4416 12.471 70.4547 11.6907 77.4757 10.9573C91.5111 9.48373 105.578 8.20692 119.682 7.34367L125.262 7.01844C121.228 7.26738 117.197 7.55514 113.168 7.8817C101.249 8.70882 89.3546 9.7929 77.4797 11.0255C70.4587 11.7429 63.4443 12.5138 56.4366 13.3383L38.6342 15.402ZM60.8812 13.9365C64.1286 13.5109 67.3813 13.0974 70.6394 12.6958L71.7914 12.5714C68.6343 12.9809 65.4812 13.4052 62.3321 13.8442L60.8812 13.9365ZM74.4741 13.0813L73.5374 13.1375L67.7813 13.4989C75.5065 12.4763 83.2411 11.5114 90.9849 10.604C104.235 9.07018 117.517 7.72912 130.847 6.70526C137.887 6.17125 144.938 5.71754 152.006 5.40034L129.137 7.98609C127.277 8.09048 125.416 8.20157 123.556 8.31935C125.347 8.21228 127.136 8.10922 128.922 8.01018L94.5885 11.8928L86.7197 12.3305C96.1909 11.2598 105.661 10.1891 115.129 9.11836V9.03003C105.278 10.1569 95.4282 11.2772 85.5796 12.3907C82.1542 12.5914 78.6915 12.8002 75.1916 13.017C81.4127 12.2354 87.6445 11.51 93.8869 10.8409C87.4 11.5315 80.9291 12.2783 74.4741 13.0813V13.0813ZM75.933 20.3085L109.258 17.245L113.192 17.0322L75.933 20.3085ZM122.332 16.2292L118.011 16.4379L119.251 16.3255L123.743 16.1047L122.332 16.2292ZM126.793 10.2065C133.243 9.56939 139.692 8.94036 146.142 8.31935H146.178C139.8 8.93768 133.434 9.56404 127.08 10.1984L126.793 10.2065ZM190.52 14.9403C183.461 14.6673 176.242 14.6512 169.126 14.7195C154.88 14.872 140.996 15.39 128.842 15.924L127.682 15.9762L129.041 15.8517C135.02 15.5827 141.247 15.3338 147.509 15.121C159.679 14.7195 172.02 14.4705 183.118 14.6271C188.467 14.7074 193.53 14.8841 198.062 15.2455L197.799 15.3619C195.419 15.1651 192.98 15.0326 190.52 14.9363V14.9403ZM199.126 15.4703L197.831 15.3619L198.094 15.2455L198.552 15.2816L199.394 15.3539L199.126 15.4703ZM200.398 14.9122L199.114 14.7958L199.513 14.6231L200.709 14.7275H200.801L200.398 14.9122ZM200.864 15.6389H200.841L201.1 15.5265L201.534 15.5747L201.279 15.6871L200.864 15.6389ZM202.228 15.8035L201.407 15.7032L201.666 15.5907L202.483 15.6911L202.228 15.8035ZM202.088 15.0929L202.487 14.9283L202.905 14.9805L202.507 15.1451L202.088 15.0929ZM202.65 15.1651L202.949 15.0367L203.156 15.2334L202.65 15.1651ZM203.017 7.74117L204.731 7.58057L205.261 7.72109L203.762 7.8576L203.017 7.74117ZM205.576 16.3456C204.97 16.2171 204.324 16.1047 203.663 16.0043L203.918 15.8919L204.946 16.0645L205.632 16.2011L205.696 16.2573L205.843 16.4058L205.576 16.3456ZM205.445 12.1618L205.716 12.0253C205.887 12.1217 206.058 12.218 206.23 12.3224L205.959 12.459C205.787 12.3586 205.616 12.2542 205.445 12.1618ZM206.242 16.4982C206.244 16.4889 206.244 16.4793 206.242 16.4701C206.202 16.4139 206.154 16.3576 206.106 16.3014L206.329 16.3496C206.377 16.4127 206.421 16.4783 206.461 16.5464L206.242 16.4982ZM206.557 15.8236C206.466 15.721 206.37 15.6232 206.27 15.5305L206.668 15.6148C206.745 15.6889 206.817 15.768 206.884 15.8517L206.923 15.9079L206.557 15.8236ZM207.055 16.719C207.046 16.6575 207.031 16.597 207.011 16.5383L207.25 16.6146C207.254 16.6748 207.254 16.7351 207.25 16.7953L207.055 16.719ZM206.955 14.6351L207.163 14.5508C207.215 14.611 207.264 14.674 207.31 14.7395L206.955 14.6351ZM207.079 13.2178L206.967 13.1335L207.179 13.1777L207.079 13.2178ZM207.234 13.2459L207.159 13.282L207.234 13.2459ZM207.234 13.1536L206.911 13.0893L206.884 13.0652L207.159 12.9568L207.35 13.1054L207.234 13.1536ZM208.35 16.3657L208.159 16.2894L208.067 16.2613C208.067 16.2171 208.067 16.177 208.036 16.1368C208.004 16.0967 207.992 16.0244 207.968 15.9682L208.279 16.0726C208.302 16.1625 208.321 16.2536 208.335 16.3456L208.35 16.3657ZM208.386 15.0487C208.371 14.9617 208.349 14.8759 208.323 14.7917L208.622 14.9082C208.636 14.9798 208.647 15.0522 208.653 15.125L208.386 15.0487ZM209.116 15.1571C209.208 15.2112 209.291 15.2788 209.363 15.3579C209.14 15.2776 208.913 15.2013 208.689 15.133C208.681 15.0628 208.669 14.9931 208.653 14.9242C208.808 14.9845 208.957 15.057 209.1 15.1411L209.116 15.1571ZM209.16 12.2582C209.058 12.3378 208.951 12.4115 208.841 12.479C208.743 12.539 208.642 12.5926 208.538 12.6396L207.382 13.1014L207.195 12.9488L209.028 12.21L209.315 12.1016C209.262 12.1556 209.205 12.2053 209.144 12.2502L209.16 12.2582ZM209.897 10.7605H210.041C210.017 10.8047 209.997 10.8529 209.977 10.8931C210.029 10.8504 210.077 10.8034 210.12 10.7525H210.18C210.339 10.8105 210.493 10.8789 210.643 10.9573L210.487 10.9814L210.26 11.0095L210.009 11.0296C209.997 10.9954 209.984 10.9619 209.969 10.9292V10.8971H209.945L209.865 10.7605H209.897ZM211.256 11.7724C211.178 11.8996 211.072 12.0068 210.945 12.0855C210.782 12.1819 210.647 12.2783 210.447 12.3746C210.248 12.471 209.921 12.6075 209.65 12.724L209.75 12.6276C209.826 12.5544 209.892 12.4706 209.945 12.3786C210.002 12.2898 210.048 12.194 210.081 12.0936C210.274 12.0187 210.449 11.9038 210.595 11.7563C210.637 11.7097 210.66 11.6488 210.66 11.5857C210.66 11.5225 210.637 11.4616 210.595 11.415C210.483 11.2919 210.347 11.1935 210.196 11.1259L210.061 11.0657V11.0456H210.204C210.336 11.0456 210.387 11.0456 210.738 10.9774L210.866 11.0456C211.02 11.1335 211.155 11.2508 211.264 11.3909C211.293 11.4498 211.306 11.5153 211.302 11.5809C211.298 11.6464 211.277 11.7097 211.24 11.7643L211.256 11.7724ZM210.116 11.3708C210.105 11.3012 210.088 11.2326 210.065 11.1661C210.206 11.2275 210.333 11.3193 210.435 11.4351C210.455 11.4608 210.468 11.4901 210.476 11.5213C210.484 11.5525 210.486 11.5849 210.481 11.6168C210.476 11.6486 210.465 11.6791 210.448 11.7065C210.431 11.7339 210.409 11.7577 210.383 11.7764C210.297 11.8551 210.199 11.9201 210.092 11.9691C210.138 11.774 210.141 11.5712 210.1 11.3749L210.116 11.3708Z"
		fill="#EE4747"
	/>
</svg>
