<svg
	width="160"
	height="180"
	viewBox="0 0 160 180"
	fill="none"
	xmlns="http://www.w3.org/2000/svg"
>
	<path
		d="M39.1719 134.273H38.3366L41.5114 143H42.3636L45.5384 134.273H44.7031L41.9759 141.964H41.8991L39.1719 134.273ZM48.9134 143.136C50.2259 143.136 51.108 142.425 51.4062 141.602L50.6861 141.368C50.4347 141.956 49.8423 142.442 48.9134 142.442C47.5753 142.442 46.7273 141.466 46.6932 139.953H51.5682V139.578C51.5682 137.392 50.2173 136.365 48.7983 136.365C47.1023 136.365 45.9304 137.784 45.9304 139.766C45.9304 141.751 47.081 143.136 48.9134 143.136ZM46.6974 139.284C46.7784 138.065 47.6009 137.055 48.7983 137.055C49.9702 137.055 50.7926 138.023 50.7926 139.284H46.6974ZM53.9982 138.909C53.9982 137.767 54.7482 137.064 55.7795 137.064C56.7852 137.064 57.4329 137.737 57.4329 138.807V143H58.1914V138.76C58.1914 137.209 57.2923 136.369 55.9712 136.369C55.0124 136.369 54.3519 136.812 54.0451 137.482H53.9769V136.455H53.2397V143H53.9982V138.909ZM62.5455 143.136C63.7344 143.136 64.2884 142.382 64.5568 141.786H64.6463V143H65.3878V134.273H64.625V137.703H64.5568C64.2969 137.115 63.7557 136.365 62.5582 136.365C60.9432 136.365 59.8523 137.729 59.8523 139.744C59.8523 141.777 60.9389 143.136 62.5455 143.136ZM62.6349 142.442C61.331 142.442 60.6151 141.257 60.6151 139.732C60.6151 138.223 61.3224 137.055 62.6349 137.055C63.9134 137.055 64.6378 138.163 64.6378 139.732C64.6378 141.312 63.9048 142.442 62.6349 142.442ZM70.0923 143.136C71.7884 143.136 72.973 141.751 72.973 139.757C72.973 137.75 71.7884 136.365 70.0923 136.365C68.3963 136.365 67.2116 137.75 67.2116 139.757C67.2116 141.751 68.3963 143.136 70.0923 143.136ZM70.0923 142.442C68.733 142.442 67.9744 141.223 67.9744 139.757C67.9744 138.291 68.733 137.055 70.0923 137.055C71.4517 137.055 72.2102 138.291 72.2102 139.757C72.2102 141.223 71.4517 142.442 70.0923 142.442ZM74.6381 143H75.3967V138.773C75.3967 137.801 76.1424 137.098 77.1651 137.098C77.3654 137.098 77.5529 137.132 77.6211 137.141V136.369C77.5188 136.365 77.3441 136.357 77.2205 136.357C76.3981 136.357 75.695 136.8 75.4308 137.46H75.3754V136.455H74.6381V143ZM89.245 134.273H88.4609V141.589H88.3928L83.2195 134.273H82.4482V143H83.245V135.692H83.3132L88.4695 143H89.245V134.273ZM94.054 143.136C95.3665 143.136 96.2486 142.425 96.5469 141.602L95.8267 141.368C95.5753 141.956 94.983 142.442 94.054 142.442C92.7159 142.442 91.8679 141.466 91.8338 139.953H96.7088V139.578C96.7088 137.392 95.358 136.365 93.9389 136.365C92.2429 136.365 91.071 137.784 91.071 139.766C91.071 141.751 92.2216 143.136 94.054 143.136ZM91.8381 139.284C91.919 138.065 92.7415 137.055 93.9389 137.055C95.1108 137.055 95.9332 138.023 95.9332 139.284H91.8381ZM102.539 140.499C102.539 141.7 101.636 142.348 100.75 142.348C99.8036 142.348 99.1388 141.67 99.1388 140.648V136.455H98.3803V140.695C98.3803 142.246 99.2752 143.085 100.532 143.085C101.491 143.085 102.173 142.587 102.48 141.913H102.539V143H103.298V136.455H102.539V140.499ZM107.884 136.455H106.499V134.886H105.737V136.455H104.761V137.115H105.737V141.47C105.737 142.54 106.58 143.098 107.42 143.098C107.735 143.098 107.948 143.038 108.093 142.983L107.931 142.297C107.825 142.327 107.688 142.357 107.488 142.357C106.972 142.357 106.499 142.114 106.499 141.291V137.115H107.884V136.455ZM109.607 143H110.365V138.773C110.365 137.801 111.111 137.098 112.134 137.098C112.334 137.098 112.522 137.132 112.59 137.141V136.369C112.488 136.365 112.313 136.357 112.189 136.357C111.367 136.357 110.664 136.8 110.4 137.46H110.344V136.455H109.607V143ZM115.712 143.149C116.803 143.149 117.468 142.544 117.741 141.964H117.788V143H118.546V138.555C118.546 136.8 117.225 136.365 116.224 136.365C115.222 136.365 114.191 136.761 113.748 137.831L114.468 138.091C114.707 137.528 115.299 137.047 116.245 137.047C117.238 137.047 117.788 137.592 117.788 138.487V138.641C117.788 139.135 117.174 139.143 116.075 139.28C114.596 139.463 113.56 139.876 113.56 141.172C113.56 142.433 114.523 143.149 115.712 143.149ZM115.815 142.455C114.958 142.455 114.319 141.999 114.319 141.206C114.319 140.413 114.967 140.081 116.075 139.945C116.612 139.881 117.566 139.761 117.788 139.544V140.49C117.788 141.564 117.025 142.455 115.815 142.455ZM121.322 134.273H120.564V143H121.322V134.273Z"
		fill="#94959A"
	/>
	<path
		d="M90.7656 66H70.1641C69.6016 66 69.25 66.5625 69.25 67.125V73.875C69.25 74.5078 69.6016 75 70.1641 75H90.7656C91.3281 75 91.6797 74.5078 91.6797 73.875V67.125C91.75 66.5625 91.3281 66 90.7656 66ZM89.5 72.75H71.5V68.25H89.5V72.75ZM80.5 53.0625C70.8672 53.0625 63.0625 60.9375 63.0625 70.5C63.0625 80.1328 70.8672 87.9375 80.5 87.9375C90.0625 87.9375 97.9375 80.1328 97.9375 70.5C97.9375 60.9375 90.0625 53.0625 80.5 53.0625ZM80.5 85.6875C72.0625 85.6875 65.3125 78.9375 65.3125 70.5C65.3125 62.1328 72.0625 55.3125 80.5 55.3125C88.8672 55.3125 95.6875 62.1328 95.6875 70.5C95.6875 78.9375 88.8672 85.6875 80.5 85.6875Z"
		fill="#94959A"
	/>
	<circle cx="80" cy="71" r="40" stroke="#94959A" stroke-width="2" />
</svg>
