<svg width="50" height="50" viewBox="0 0 50 50" fill="none" xmlns="http://www.w3.org/2000/svg">
<path d="M17.5263 17.3158C17.5263 16.4079 16.3026 16.0526 15.75 16.8026C10.8947 23.9474 17.8421 24.2632 17.8421 27.7368C17.8421 29.1579 16.6579 30.3026 15.2763 30.2632C13.8553 30.2632 12.7895 29.1184 12.7895 27.7368V24.3421C12.7895 23.4737 11.7237 23.0789 11.1316 23.7105C10.0658 24.8158 9 26.7105 9 29C9 33.1842 12.3947 36.5789 16.5789 36.5789C20.7237 36.5789 24.1579 33.1842 24.1579 29C24.1579 22.2895 17.5263 21.3816 17.5263 17.3158Z" fill="#282A35"/>
<path fill-rule="evenodd" clip-rule="evenodd" d="M41 13V36.5789H20.7895V13H41ZM28.7895 14.2632H39.7368V19.5965H28.7895V14.2632ZM27.5263 14.2632V19.5965H22.0526V14.2632H27.5263ZM22.0526 20.8596V27.4561H33.4211V20.8596H22.0526ZM39.7368 27.4561H34.6842V20.8596H39.7368V27.4561ZM22.0526 35.3158V28.7193H27.5263V35.3158H22.0526ZM28.7895 35.3158H39.7368V28.7193H28.7895V35.3158Z" fill="#282A35"/>
</svg>
