<svg width="50" height="50" viewBox="0 0 50 50" fill="none" xmlns="http://www.w3.org/2000/svg">
<g clip-path="url(#clip0)">
<path fill-rule="evenodd" clip-rule="evenodd" d="M29.936 21.2245C29.936 21.0887 29.9899 20.9585 30.086 20.8625C30.182 20.7665 30.3122 20.7125 30.448 20.7125C30.5143 20.7125 30.5799 20.7258 30.6408 20.7518C30.7018 20.7778 30.7569 20.8159 30.8027 20.8637C30.8486 20.9115 30.8843 20.9682 30.9076 21.0302C30.931 21.0922 30.9415 21.1583 30.9387 21.2245C30.9387 21.8005 29.936 21.8005 29.936 21.2245ZM27.3547 27.6245C27.3547 27.4944 27.4064 27.3696 27.4984 27.2776C27.5904 27.1856 27.7152 27.1339 27.8453 27.1339C27.9755 27.1339 28.1003 27.1856 28.1923 27.2776C28.2843 27.3696 28.336 27.4944 28.336 27.6245C28.336 28.1792 27.3547 28.1792 27.3547 27.6245ZM21.104 26.5365C21.104 26.4007 21.1579 26.2705 21.254 26.1745C21.35 26.0785 21.4802 26.0245 21.616 26.0245C21.6823 26.0245 21.7479 26.0378 21.8088 26.0638C21.8698 26.0898 21.9249 26.1279 21.9707 26.1757C22.0166 26.2235 22.0523 26.2802 22.0756 26.3422C22.099 26.4042 22.1095 26.4703 22.1067 26.5365C22.1067 27.1125 21.104 27.1125 21.104 26.5365ZM18.5227 32.4672C18.5198 32.401 18.5303 32.3349 18.5537 32.2729C18.5771 32.2109 18.6128 32.1542 18.6586 32.1064C18.7045 32.0585 18.7595 32.0205 18.8205 31.9945C18.8815 31.9685 18.9471 31.9551 19.0133 31.9552C19.1491 31.9552 19.2794 32.0091 19.3754 32.1052C19.4714 32.2012 19.5253 32.3314 19.5253 32.4672C19.5253 33.0432 18.5227 33.0432 18.5227 32.4672ZM30.448 18.4939C30.0988 18.4966 29.7536 18.5685 29.4323 18.7054C29.111 18.8422 28.82 19.0414 28.5761 19.2912C28.3321 19.5411 28.1401 19.8369 28.011 20.1614C27.8819 20.4858 27.8184 20.8327 27.824 21.1819C27.8276 21.9064 28.1103 22.6017 28.6133 23.1232L27.9307 24.9579C27.4677 24.9688 27.016 25.1031 26.6223 25.3468C26.2285 25.5906 25.9069 25.935 25.6907 26.3445L24.1973 26.0032C24.0897 25.415 23.7828 24.8818 23.3282 24.4933C22.8736 24.1047 22.2991 23.8846 21.7013 23.8699C21.3511 23.8754 21.0054 23.9499 20.684 24.0891C20.3626 24.2283 20.0718 24.4294 19.8281 24.681C19.5844 24.9326 19.3927 25.2297 19.2639 25.5554C19.1351 25.8811 19.0717 26.229 19.0773 26.5792C19.0934 27.1139 19.2638 27.6325 19.568 28.0725L18.8427 29.8432C18.1699 29.9264 17.5534 30.2607 17.1166 30.7792C16.6799 31.2977 16.4552 31.9621 16.4876 32.6392C16.52 33.3164 16.807 33.9563 17.2912 34.4308C17.7754 34.9052 18.421 35.1792 19.0987 35.1979C19.7947 35.1646 20.4501 34.8603 20.9245 34.3499C21.399 33.8396 21.6549 33.1638 21.6373 32.4672C21.6358 32.0992 21.5594 31.7355 21.4127 31.398C21.266 31.0606 21.0521 30.7566 20.784 30.5045L21.3173 29.2032C21.4165 29.2153 21.5168 29.2153 21.616 29.2032C22.0387 29.2005 22.4544 29.0941 22.8263 28.8932C23.1983 28.6924 23.5153 28.4032 23.7493 28.0512L25.456 28.4565C25.6143 28.9808 25.9353 29.4411 26.3725 29.7709C26.8097 30.1007 27.3404 30.2829 27.888 30.2912C28.2382 30.2856 28.5839 30.2111 28.9053 30.072C29.2267 29.9328 29.5176 29.7317 29.7612 29.4801C30.0049 29.2285 30.1966 28.9314 30.3254 28.6056C30.4543 28.28 30.5176 27.9321 30.512 27.5819C30.5053 26.9491 30.2791 26.3383 29.872 25.8539L30.6613 23.7205C31.0143 23.7093 31.3617 23.6287 31.6835 23.4833C32.0053 23.3378 32.2954 23.1304 32.537 22.8729C32.7787 22.6154 32.9673 22.3128 33.092 21.9823C33.2168 21.6519 33.2752 21.3002 33.264 20.9472C33.2528 20.5942 33.1722 20.2469 33.0267 19.925C32.8813 19.6032 32.6739 19.3132 32.4164 19.0715C32.1588 18.8298 31.8562 18.6412 31.5258 18.5165C31.1954 18.3918 30.8437 18.3333 30.4907 18.3445L30.448 18.4939ZM24.6667 38.8672C19.0347 38.8672 16.1333 37.1179 16.1333 36.3499V16.6592C18.7881 17.9482 21.7171 18.5706 24.6667 18.4725C27.6162 18.5706 30.5452 17.9482 33.2 16.6592V36.2859C33.2 37.0539 30.2773 38.8032 24.6667 38.8032V38.8672ZM24.6667 11.1339C29.9787 11.1339 33.2 12.8192 33.2 13.7152C33.2 14.6112 29.9573 16.2965 24.6667 16.2965C19.376 16.2965 16.1333 14.6112 16.1333 13.6939C16.1333 12.7765 19.3547 11.1339 24.6667 11.1339ZM35.3333 13.6939C35.3333 7.44319 14 7.44319 14 13.6939V36.2859C14 39.3792 19.376 41.0005 24.6667 41.0005C29.9573 41.0005 35.3333 39.3792 35.3333 36.2859V13.7152" fill="#282A35"/>
</g>
<defs>
<clipPath id="clip0">
<rect width="21.3333" height="32" fill="white" transform="translate(14 9)"/>
</clipPath>
</defs>
</svg>
