<svg width="50" height="50" viewBox="0 0 50 50" fill="none" xmlns="http://www.w3.org/2000/svg">
<g clip-path="url(#clip0)">
<path fill-rule="evenodd" clip-rule="evenodd" d="M37.2356 26.547L37.4026 25.3341C38.0987 25.6891 38.7143 26.1835 39.2111 26.7867C38.544 26.8592 37.8692 26.7823 37.2356 26.5615V26.547ZM24.3804 22.153C24.3803 22.1437 24.3822 22.1346 24.3859 22.1262C24.3897 22.1177 24.3951 22.1102 24.402 22.104C24.4089 22.0978 24.417 22.0932 24.4257 22.0903C24.4345 22.0875 24.4438 22.0866 24.453 22.0876L24.3949 22.1965C24.3827 22.1948 24.3716 22.1887 24.3636 22.1793C24.3555 22.17 24.3512 22.158 24.3513 22.1457L24.3804 22.153ZM34.3377 37.1798C34.3377 37.1798 34.3377 37.2451 34.3377 37.2742C34.3377 37.3032 34.069 37.8189 32.8416 38.2982C32.2178 38.5376 31.5769 38.7294 30.9242 38.872C28.801 39.3346 26.6332 39.5611 24.4603 39.5474C18.3086 39.5474 14.5756 37.9714 14.5756 37.2742C14.5792 37.2428 14.5792 37.2111 14.5756 37.1798L11.7721 16.4734C11.9537 16.5751 12.1425 16.6768 12.3459 16.7712L12.5274 16.8511C12.7017 16.931 12.8833 17.0109 13.0722 17.0835L13.3191 17.1852L13.9364 17.4031L14.1253 17.4612C14.4012 17.5483 14.6845 17.6282 14.9823 17.7081L15.2292 17.7735L15.9555 17.9405L16.2605 18.0059L17.074 18.1657H17.2483L18.2651 18.3327H18.5628L19.3545 18.4344L19.6886 18.4707L20.6618 18.5651H20.778L21.882 18.6378H22.2015H23.0367H23.3636H24.482H25.5933H25.9201H26.7553H27.0749L28.1788 18.5651H28.3023L29.2682 18.4707L29.6023 18.4344L30.3359 18.3981H30.6337L31.6505 18.231H31.832L32.6382 18.0713L32.9505 18.0059L33.6768 17.8389L33.931 17.7735L34.7807 17.5266L34.9696 17.4685L35.5942 17.2433L35.8411 17.1561L36.3858 16.9165L36.5601 16.8366C36.7635 16.7422 36.9596 16.6405 37.1339 16.5388L35.8338 26.1984C32.4682 25.0239 29.1769 23.6463 25.9782 22.0731C25.9626 21.7765 25.8602 21.4909 25.6839 21.2519C25.5076 21.0129 25.265 20.8308 24.9862 20.7283C24.7074 20.6258 24.4047 20.6073 24.1155 20.6752C23.8263 20.7431 23.5634 20.8943 23.3594 21.1101C23.1553 21.326 23.019 21.597 22.9675 21.8895C22.9159 22.182 22.9513 22.4832 23.0693 22.7558C23.1872 23.0284 23.3826 23.2604 23.6311 23.4231C23.8797 23.5858 24.1705 23.6719 24.4675 23.6709C24.7843 23.6725 25.0929 23.5705 25.3463 23.3804C28.6701 25.0337 32.1125 26.4369 35.645 27.5783L34.3377 37.1798ZM24.453 10.4526C32.0136 10.4526 37.3518 12.7985 37.4462 14.084V14.2365C37.4462 14.2801 37.4026 14.3236 37.3808 14.3745C37.3617 14.4124 37.3399 14.4488 37.3155 14.4834C37.2807 14.5326 37.2418 14.5788 37.1992 14.6214L37.083 14.7449L36.9087 14.8756L36.749 15.0064L36.5311 15.1371L36.3059 15.2678L36.0445 15.3985L35.7757 15.5293L35.4707 15.6527L35.1439 15.7835L34.8025 15.9069L34.4321 16.0304L34.0399 16.1466L33.6259 16.2701L33.1902 16.379L32.7399 16.488L32.246 16.5896L31.7667 16.6913L31.2292 16.7857L30.7208 16.8729L30.1398 16.9528L29.6023 17.0254L28.9487 17.098L28.4185 17.1489L27.6922 17.207H27.1838C26.9078 17.207 26.6173 17.207 26.3341 17.2506H25.862C25.4117 17.2506 24.9541 17.2506 24.4893 17.2506C24.0172 17.2506 23.5597 17.2506 23.1094 17.2506H22.63C22.3468 17.2506 22.0635 17.2506 21.7875 17.207H21.2574L20.5311 17.1489L20.0009 17.098L19.3472 17.0254L18.817 16.9528L18.2288 16.8729L17.7058 16.7785L17.1829 16.6913L16.6963 16.5896L16.217 16.488L15.7594 16.379L15.3236 16.2701L14.9024 16.1466C14.7789 16.1466 14.6409 16.074 14.5247 16.0304L14.1398 15.8997L13.8057 15.7835L13.4789 15.6527L13.1375 15.5365L12.9051 15.4131L12.6436 15.2823L12.4258 15.1516L12.1788 15.0209C12.1204 14.9809 12.0646 14.9372 12.0118 14.8901L11.8375 14.7594L11.7285 14.636L11.5978 14.498C11.5741 14.4615 11.5547 14.4225 11.5397 14.3818C11.5076 14.3403 11.4784 14.2966 11.4525 14.251V14.084C11.5542 12.7839 16.8851 10.4526 24.453 10.4526ZM40.6854 26.6196C40.5038 25.7844 39.5742 24.8983 37.5987 23.7798L38.8552 14.5197L38.8915 14.2365C38.8951 14.2051 38.8951 14.1734 38.8915 14.1421C38.8987 11.1062 31.2873 9 24.453 9C17.6187 9 9.99998 11.1062 9.99998 14.1348C9.9961 14.1662 9.9961 14.1979 9.99998 14.2292L10.0363 14.5125L13.1157 37.325C13.2101 39.9977 20.0953 40.9927 24.453 40.9927C26.7364 41.0004 29.0136 40.7568 31.2437 40.2665C31.9656 40.1066 32.6745 39.893 33.3645 39.6273C34.9405 39.01 35.7539 38.2256 35.783 37.3105L37.0467 27.9197C37.6523 28.0601 38.2702 28.1404 38.8915 28.1593C39.1651 28.1899 39.442 28.1617 39.7038 28.0765C39.9656 27.9913 40.2062 27.8512 40.4094 27.6655C40.5331 27.5199 40.6222 27.3482 40.67 27.1633C40.7178 26.9784 40.7231 26.7851 40.6854 26.5978V26.6196Z" fill="#EAEAEB"/>
</g>
<defs>
<clipPath id="clip0">
<rect width="30.7145" height="32" fill="white" transform="translate(10 9)"/>
</clipPath>
</defs>
</svg>
