<svg width="50" height="50" viewBox="0 0 50 50" fill="none" xmlns="http://www.w3.org/2000/svg">
<path d="M30.625 21C30.625 21.6562 31.0938 22.125 31.75 22.125C32.3594 22.125 32.875 21.6562 32.875 21C32.875 20.3906 32.3594 19.875 31.75 19.875C31.0938 19.875 30.625 20.3906 30.625 21ZM28.75 22.125C29.3594 22.125 29.875 21.6562 29.875 21C29.875 20.3906 29.3594 19.875 28.75 19.875C28.0938 19.875 27.625 20.3906 27.625 21C27.625 21.6562 28.0938 22.125 28.75 22.125ZM37 16.125V12.375C37 11.1562 35.9688 10.125 34.75 10.125H15.25C13.9844 10.125 13 11.1562 13 12.375V16.125C13 16.7344 13.1875 17.25 13.5625 17.625C13.1875 18.0469 13 18.5625 13 19.125V22.875C13 23.4844 13.1875 24 13.5625 24.375C13.1875 24.7969 13 25.3125 13 25.875V29.625C13 30.8906 13.9844 31.875 15.25 31.875H34.75C35.9688 31.875 37 30.8906 37 29.625V25.875C37 25.3125 36.7656 24.7969 36.3906 24.375C36.7656 24 37 23.4844 37 22.875V19.125C37 18.5625 36.7656 18.0469 36.3906 17.625C36.7656 17.25 37 16.7344 37 16.125ZM14.5 16.125V12.375C14.5 12 14.8281 11.625 15.25 11.625H34.75C35.125 11.625 35.5 12 35.5 12.375V16.125C35.5 16.5469 35.125 16.875 34.75 16.875H15.25C14.8281 16.875 14.5 16.5469 14.5 16.125ZM34.75 18.375C35.125 18.375 35.5 18.75 35.5 19.125V22.875C35.5 23.2969 35.125 23.625 34.75 23.625H15.25C14.8281 23.625 14.5 23.2969 14.5 22.875V19.125C14.5 18.75 14.8281 18.375 15.25 18.375H34.75ZM35.5 25.875V29.625C35.5 30.0469 35.125 30.375 34.75 30.375H15.25C14.8281 30.375 14.5 30.0469 14.5 29.625V25.875C14.5 25.5 14.8281 25.125 15.25 25.125H34.75C35.125 25.125 35.5 25.5 35.5 25.875ZM31.75 15.375C32.3594 15.375 32.875 14.9062 32.875 14.25C32.875 13.6406 32.3594 13.125 31.75 13.125C31.0938 13.125 30.625 13.6406 30.625 14.25C30.625 14.9062 31.0938 15.375 31.75 15.375ZM28.75 15.375C29.3594 15.375 29.875 14.9062 29.875 14.25C29.875 13.6406 29.3594 13.125 28.75 13.125C28.0938 13.125 27.625 13.6406 27.625 14.25C27.625 14.9062 28.0938 15.375 28.75 15.375ZM31.75 26.625C31.0938 26.625 30.625 27.1406 30.625 27.75C30.625 28.4062 31.0938 28.875 31.75 28.875C32.3594 28.875 32.875 28.4062 32.875 27.75C32.875 27.1406 32.3594 26.625 31.75 26.625ZM28.75 26.625C28.0938 26.625 27.625 27.1406 27.625 27.75C27.625 28.4062 28.0938 28.875 28.75 28.875C29.3594 28.875 29.875 28.4062 29.875 27.75C29.875 27.1406 29.3594 26.625 28.75 26.625Z" fill="#EAEAEB"/>
<rect x="22.4775" y="35.9316" width="4.31818" height="4.31818" stroke="#EAEAEB" stroke-width="1.5"/>
<path d="M13.9697 38.0908H21.7273" stroke="#EAEAEB" stroke-width="1.5"/>
<path d="M27.5459 38.0908H35.3035" stroke="#EAEAEB" stroke-width="1.5"/>
<path d="M24.6367 35.1816L24.6367 30.3332" stroke="#EAEAEB" stroke-width="1.5"/>
</svg>
