<svg width="50" height="50" viewBox="0 0 50 50" fill="none" xmlns="http://www.w3.org/2000/svg">
<path d="M21.625 16.9375C21.3906 16.7031 21.0156 16.7031 20.8281 16.9375L20.5 17.2656C20.2656 17.5 20.2656 17.8281 20.5 18.0625L26.6406 24.2031H13.5625C13.2344 24.2031 13 24.4844 13 24.7656V25.2344C13 25.5625 13.2344 25.7969 13.5625 25.7969H26.6406L20.4531 31.9844C20.2656 32.2188 20.2656 32.5469 20.4531 32.7812L20.8281 33.1094C21.0156 33.3438 21.3906 33.3438 21.625 33.1094L29.3125 25.4219C29.5469 25.1875 29.5469 24.8594 29.3125 24.625L21.625 16.9375ZM37 31.75V18.25C37 17.0312 35.9688 16 34.75 16H28.5625C28.2344 16 28 16.2812 28 16.5625V16.9375C28 17.2656 28.2344 17.5 28.5625 17.5H34.75C35.125 17.5 35.5 17.875 35.5 18.25V31.75C35.5 32.1719 35.125 32.5 34.75 32.5H28.5625C28.2344 32.5 28 32.7812 28 33.0625V33.4375C28 33.7656 28.2344 34 28.5625 34H34.75C35.9688 34 37 33.0156 37 31.75Z" fill="#282A35"/>
</svg>
