<svg width="50" height="50" viewBox="0 0 50 50" fill="none" xmlns="http://www.w3.org/2000/svg">
<path d="M32.5 22.7373V16.1162C32.5 15.2373 31.9141 14.4756 31.0938 14.124L25.7031 12.1318C25.2344 11.9561 24.707 11.9561 24.2383 12.1318L18.8477 14.124C18.0273 14.4756 17.4414 15.2373 17.4414 16.1162V22.7373L11.3477 25.0225C10.5273 25.3154 10 26.1357 10 27.0146V33.2256C10 34.0459 10.4102 34.749 11.1133 35.1006L16.9141 38.0303C17.5 38.3232 18.2031 38.3232 18.7891 38.0303L25 34.9248L31.1523 38.0303C31.7383 38.3232 32.4414 38.3232 33.0273 38.0303L38.8281 35.1006C39.5312 34.749 40 34.0459 40 33.2256V27.0146C40 26.1357 39.4141 25.3154 38.5938 25.0225L32.5 22.7373ZM25.7031 24.7295V18.9873L31.0938 17.1709V22.8545L25.7031 24.7295ZM18.9062 15.6475L25 13.3623L31.0938 15.6475L25 17.7568L18.9062 15.6475ZM18.9062 17.1709L24.2969 18.9873V24.7295L18.9062 22.8545V17.1709ZM17.1484 36.4482L11.4648 33.6357V28.1279L17.1484 30.4717V36.4482ZM11.4648 26.5459L17.8516 24.1436L24.1797 26.5459V26.6045L17.8516 29.1826L11.4648 26.5459ZM18.6133 30.4717L24.1797 28.1865V33.6357L18.6133 36.4482V30.4717ZM31.3281 36.4482L25.7617 33.6357V28.1865L31.3281 30.4717V36.4482ZM38.4766 33.6357L32.8516 36.4482V30.4717L38.4766 28.1279V33.6357ZM38.4766 26.5459L32.0898 29.1826L25.7617 26.6045V26.5459L32.0898 24.1436L38.4766 26.5459Z" fill="#EAEAEB"/>
</svg>
