<svg width="50" height="50" viewBox="0 0 50 50" fill="none" xmlns="http://www.w3.org/2000/svg">
<path d="M39.9348 29.7852L38.3356 19.8255C37.8995 17.4765 35.961 15.5503 33.4411 14.9866C31.018 14.4228 26.9957 14 24.4758 14C22.0043 14 17.982 14.4228 15.5589 14.9866C13.039 15.5503 11.1005 17.4765 10.6644 19.8255L9.06517 29.7852C8.58056 32.5101 10.8582 35 13.9113 35C16.3343 35 18.4666 33.5906 19.1935 31.5235L19.5812 30.4899H29.4188L29.8065 31.5235C30.5334 33.5906 32.6657 35 35.0887 35C38.1418 35 40.4194 32.5101 39.9348 29.7852ZM37.7541 32.3691C37.1241 33.0738 36.1549 33.4966 35.0887 33.4966C33.3441 33.4966 31.7934 32.5101 31.2603 31.0067L30.8726 30.0201L30.5334 28.9866H18.4666L18.1274 30.0201L17.7397 31.0067C17.2066 32.5101 15.6559 33.4966 13.9113 33.4966C12.8451 33.4966 11.8759 33.0738 11.2459 32.3691C10.8582 31.8993 10.5675 31.1007 10.5675 30.5369C10.5675 30.396 10.5675 30.1611 10.6159 30.0201L12.2151 20.1074C12.5059 18.3221 14.0082 16.9128 15.8982 16.443C18.2728 15.9262 22.1012 15.4564 24.5242 15.4564C26.8988 15.4564 30.7272 15.9262 33.1018 16.443C35.0403 16.9128 36.4941 18.3221 36.7849 20.0604L38.4325 30.0201C38.5779 30.8658 38.3356 31.6644 37.7541 32.3691ZM21.3258 22.0805H19.242V20.0604C19.242 19.8255 19.0481 19.6376 18.7574 19.5906H17.8366C17.5458 19.6376 17.352 19.8255 17.352 20.0604V22.0805H15.2682C15.0259 22.0805 14.832 22.2685 14.832 22.5503V23.443C14.832 23.7248 15.0259 23.9128 15.2682 23.9128H17.352V25.9329C17.352 26.1678 17.5458 26.3557 17.8366 26.3557H18.7574C19.0481 26.3557 19.242 26.1678 19.242 25.9329V23.9128H21.3258C21.5681 23.9128 21.762 23.7248 21.8104 23.443V22.5503C21.762 22.2685 21.5681 22.0805 21.3258 22.0805ZM29.1765 22.9732C28.3042 22.9732 27.6257 23.6779 27.6257 24.4765C27.6257 25.3221 28.3042 25.9799 29.1765 25.9799C30.0003 25.9799 30.7272 25.3221 30.7272 24.4765C30.7272 23.6779 30.0003 22.9732 29.1765 22.9732ZM32.278 19.9664C31.4057 19.9664 30.7272 20.6711 30.7272 21.4698C30.7272 22.3154 31.4057 22.9732 32.278 22.9732C33.1018 22.9732 33.8287 22.3154 33.8287 21.4698C33.8287 20.6711 33.1018 19.9664 32.278 19.9664Z" fill="#EAEAEB"/>
</svg>
