<svg width="50" height="50" viewBox="0 0 50 50" fill="none" xmlns="http://www.w3.org/2000/svg">
<path d="M36.6094 15.5391L26.1094 11.1641C25.8359 11.0547 25.3984 11 25.125 11C24.7969 11 24.3594 11.0547 24.0859 11.1641L13.5859 15.5391C12.6016 15.9766 12 16.9062 12 17.9453C12 28.8281 18.2344 36.3203 24.0859 38.7812C24.7422 39.0547 25.4531 39.0547 26.1094 38.7812C30.8125 36.8125 38.25 30.0859 38.25 17.9453C38.25 16.9062 37.5938 15.9766 36.6094 15.5391ZM25.4531 37.1406C25.2344 37.25 24.9609 37.25 24.7422 37.1406C19.4375 35.0078 13.75 27.5703 13.75 17.9453C13.75 17.6172 13.9141 17.2891 14.2422 17.1797L24.7422 12.8047C24.9609 12.6953 25.2344 12.6953 25.4531 12.8047L35.9531 17.1797C36.2812 17.2891 36.5 17.6172 36.4453 17.9453C36.5 27.5703 30.8125 35.0078 25.4531 37.1406ZM25.125 33.4219V16.4141L17.3047 19.6953C17.8516 26.2578 21.5156 31.4531 25.125 33.4219ZM23.375 29.8125C21.3516 27.625 19.7656 24.4531 19.1641 20.7891L23.375 19.0391V29.8125Z" fill="#EAEAEB"/>
</svg>
