<svg width="50" height="50" viewBox="0 0 50 50" fill="none" xmlns="http://www.w3.org/2000/svg">
<path d="M22 15C18.875 15 16.375 17.5625 16.375 20.625C16.375 22.8125 18.75 26.125 20.75 28.5C21.0625 28.8125 21.5 29 22 29C22.4375 29 22.875 28.8125 23.1875 28.5C25.1875 26.125 27.5625 22.8125 27.5625 20.625C27.5625 17.5625 25.0625 15 22 15ZM22 26.8125C19.75 24.125 18.375 21.75 18.375 20.625C18.375 18.625 20 17 22 17C23.9375 17 25.5625 18.625 25.5625 20.625C25.5625 21.75 24.1875 24.125 22 26.8125ZM22 19C21.125 19 20.5 19.6875 20.5 20.5C20.5 21.375 21.125 22 22 22C22.8125 22 23.5 21.375 23.5 20.5C23.5 19.6875 22.8125 19 22 19ZM40.75 39.125L32.6875 31.0625C32.5625 30.9375 32.375 30.875 32.125 30.875H31.5C33.625 28.5 34.9375 25.4375 34.9375 22C34.9375 14.875 29.125 9 21.9375 9C14.8125 9 9 14.875 9 22C9 29.1875 14.8125 35 21.9375 35C25.375 35 28.4375 33.6875 30.8125 31.5625V32.1875C30.8125 32.4375 30.875 32.625 31 32.75L39.0625 40.8125C39.375 41.125 39.8125 41.125 40.125 40.8125L40.75 40.1875C41.0625 39.875 41.0625 39.4375 40.75 39.125ZM21.9375 33C15.875 33 11 28.125 11 22C11 15.9375 15.875 11 21.9375 11C28.0625 11 32.9375 15.9375 32.9375 22C32.9375 28.125 28.0625 33 21.9375 33Z" fill="#EAEAEB"/>
</svg>
