<svg width="50" height="50" viewBox="0 0 50 50" fill="none" xmlns="http://www.w3.org/2000/svg">
<path d="M39.1176 25.3912H35.5882V18.5444L37.5184 16.5639C37.8493 16.2244 37.8493 15.602 37.5184 15.2624C37.1875 14.9229 36.5809 14.9229 36.25 15.2624L34.3199 17.2429H32.114C32.114 13.282 28.9154 10 25.0551 10C21.1397 10 17.9963 13.282 17.9963 17.2429H15.625L13.2537 14.8098C12.9228 14.4702 12.3162 14.4702 11.9853 14.8098C11.6544 15.1493 11.6544 15.7717 11.9853 16.1112L14.4118 18.5444V25.3912H10.8824C10.386 25.3912 10 25.8439 10 26.2966C10 26.8059 10.386 27.202 10.8824 27.202H14.4118V28.56C14.4118 30.6537 15.0184 32.5776 16.0662 34.162L12.8676 37.4439C12.5368 37.7834 12.5368 38.4059 12.8676 38.7454C13.1985 39.0849 13.8051 39.0849 14.136 38.7454L17.1691 35.5766C18.9338 37.3873 21.4154 38.519 24.1176 38.519H25.8824C28.5294 38.519 31.011 37.3873 32.7757 35.5766L35.8088 38.7454C36.1397 39.0849 36.7463 39.0849 37.0772 38.7454C37.4081 38.4059 37.4081 37.7834 37.0772 37.4439L33.8787 34.162C34.9265 32.5776 35.5882 30.6537 35.5882 28.56V27.202H39.1176C39.5588 27.202 40 26.8059 40 26.2966C40 25.8439 39.5588 25.3912 39.1176 25.3912ZM25.0551 11.8107C27.9779 11.8107 30.3493 14.2439 30.3493 17.2429H19.761C19.761 14.2439 22.0772 11.8107 25.0551 11.8107ZM25.8824 36.7083V23.3541C25.8824 23.0146 25.5515 22.6751 25.2206 22.6751H24.7794C24.3934 22.6751 24.1176 23.0146 24.1176 23.3541V36.7083C19.7059 36.7083 16.1765 33.0868 16.1765 28.56V19.0537H33.8235V28.56C33.8235 33.0868 30.239 36.7083 25.8824 36.7083Z" fill="#EAEAEB"/>
</svg>
