<svg width="50" height="50" viewBox="0 0 50 50" fill="none" xmlns="http://www.w3.org/2000/svg">
<path d="M39.0629 21.6445L32.6176 20.7656L35.0785 14.6133C35.3715 13.8516 34.7856 13.1484 34.0824 13.1484C33.8481 13.1484 33.6723 13.207 33.4965 13.3242L27.9887 16.7812L25.9965 10.5117C25.8207 10.043 25.4106 9.75 25.0004 9.75C24.5317 9.75 24.1215 10.043 23.9457 10.5117L21.9535 16.8398L16.4457 13.3242C16.2699 13.207 16.0942 13.1484 15.8598 13.1484C15.1567 13.1484 14.5707 13.8516 14.8637 14.6133L17.3246 20.7656L10.8793 21.6445C9.88321 21.7617 9.64884 23.168 10.5277 23.6953L16.2699 26.7422L11.934 31.6641C11.2895 32.3672 11.8168 33.4805 12.6957 33.4805C12.8129 33.4805 12.8715 33.4805 12.9301 33.4219L19.3168 32.0742L19.0824 38.6367C19.0238 39.3398 19.6098 39.75 20.1371 39.75C20.4301 39.75 20.7817 39.6328 20.9574 39.3398L25.0004 34.125L28.9848 39.3398C29.1606 39.6328 29.5121 39.75 29.8051 39.75C30.3324 39.75 30.9184 39.3398 30.8598 38.6367L30.6254 32.0742L37.0121 33.4219C37.0707 33.4805 37.1879 33.4805 37.2465 33.4805C38.1254 33.4805 38.6527 32.3672 38.0082 31.6641L33.6723 26.7422L39.4145 23.6953C40.2934 23.168 40.059 21.7617 39.0629 21.6445ZM32.7934 25.1016L30.684 26.2148L32.266 28.0312L35.0199 31.0781L31.0356 30.1992L28.6918 29.7305L28.809 32.1328L28.9262 36.293L26.4067 33.0117L25.0004 31.0781L23.5356 33.0117L21.016 36.293L21.1332 32.1328L21.2504 29.7305L18.9067 30.1992L14.9223 31.0781L17.6762 28.0312L19.2582 26.2148L17.1488 25.1016L13.516 23.168L17.6176 22.582L19.9613 22.2891L19.0238 20.0625L17.5004 16.1953L20.9574 18.4219L23.0082 19.6523L23.7113 17.3672L25.0004 13.4414L26.2309 17.3672L26.934 19.6523L28.9848 18.4219L32.4418 16.1953L30.9184 20.0625L29.9809 22.2891L32.3246 22.582L36.4262 23.168L32.7934 25.1016Z" fill="#EAEAEB"/>
</svg>
