<svg width="50" height="50" viewBox="0 0 50 50" fill="none" xmlns="http://www.w3.org/2000/svg">
<path d="M24.75 26.25C26.6641 26.25 28.25 24.7188 28.25 22.75C28.25 20.8359 26.6641 19.25 24.75 19.25C24.6953 19.25 24.6406 19.3047 24.5859 19.3047C24.6406 19.5234 24.75 19.9062 24.75 20.1797C24.75 21.6016 23.5469 22.8047 22.125 22.8047C21.8516 22.8047 21.4688 22.6953 21.25 22.6406C21.25 22.6953 21.25 22.75 21.25 22.75C21.25 24.7188 22.7812 26.25 24.75 26.25ZM40.2812 23.7344C37.3281 17.9375 31.4219 14 24.75 14C18.0234 14 12.1172 17.9375 9.16406 23.7344C9.05469 23.9531 9 24.2812 9 24.5547C9 24.7734 9.05469 25.1016 9.16406 25.3203C12.1172 31.1172 18.0234 35 24.75 35C31.4219 35 37.3281 31.1172 40.2812 25.3203C40.3906 25.1016 40.4453 24.7734 40.4453 24.5C40.4453 24.2812 40.3906 23.9531 40.2812 23.7344ZM24.75 15.75C28.5781 15.75 31.75 18.9219 31.75 22.75C31.75 26.6328 28.5781 29.75 24.75 29.75C20.8672 29.75 17.75 26.6328 17.75 22.75C17.75 18.9219 20.8672 15.8047 24.75 15.75ZM24.75 33.25C18.8438 33.25 13.4844 29.9141 10.75 24.5C12.0625 21.9297 15.2344 18.7578 17.8047 17.4453C16.6562 18.9219 16 20.7812 16 22.75C16 27.6172 19.8828 31.5 24.75 31.5C29.5625 31.5 33.5 27.6172 33.5 22.75C33.5 20.7812 32.7891 18.9219 31.6406 17.4453C34.2109 18.7578 37.3828 21.9297 38.75 24.5C35.9609 29.9141 30.6016 33.25 24.75 33.25Z" fill="#EAEAEB"/>
</svg>
