<svg width="50" height="50" viewBox="0 0 50 50" fill="none" xmlns="http://www.w3.org/2000/svg">
<path d="M35.9922 11.5129L33.2578 14.2473C30.9609 12.4973 28.0625 11.4035 25 11.4035C17.7266 11.4035 11.7656 17.1457 11.4375 24.3098C11.3828 24.6926 11.7109 24.966 12.0938 24.966H12.6406C12.9688 24.966 13.2422 24.7473 13.2969 24.3645C13.625 18.1848 18.7109 13.2629 25 13.2629C27.5703 13.2629 29.9766 14.1379 31.9453 15.5598L28.9922 18.5129C27.8984 19.6066 28.6641 21.466 30.25 21.466H37.25C38.1797 21.466 39 20.7004 39 19.716V12.7707C39 11.1848 37.0859 10.4191 35.9922 11.5129ZM37.25 19.716H30.25L37.25 12.716V19.716ZM37.8516 24.966H37.3047C36.9766 24.966 36.7031 25.2395 36.6484 25.6223C36.3203 31.802 31.2344 36.6691 25 36.6691C22.375 36.6691 19.9688 35.8488 18 34.427L20.9531 31.4738C22.0469 30.3801 21.2812 28.466 19.6953 28.466H12.75C11.7656 28.466 11 29.2863 11 30.216V37.216C11 38.802 12.8594 39.5676 13.9531 38.4738L16.6875 35.7395C18.9844 37.4895 21.8828 38.5285 25 38.5285C32.2188 38.5285 38.1797 32.841 38.5078 25.677C38.5625 25.2941 38.2344 24.966 37.8516 24.966ZM12.75 37.216V30.216H19.75L12.75 37.216Z" fill="#EAEAEB"/>
</svg>
