<svg width="50" height="50" viewBox="0 0 50 50" fill="none" xmlns="http://www.w3.org/2000/svg">
<path d="M37.8438 27.25H35.6562C34.7812 27.25 34.0156 27.5234 33.3594 27.9609C33.9062 28.3438 34.3438 28.7266 34.7812 29.2188C35.0547 29.1094 35.3281 29 35.6562 29H37.8438C39.1562 29 40.25 30.2031 40.25 31.625C40.25 32.1172 40.6328 32.5 41.125 32.5C41.5625 32.5 42 32.1172 42 31.625C42 29.2188 40.0859 27.25 37.8438 27.25ZM36.75 25.5C39.1562 25.5 41.125 23.5859 41.125 21.125C41.125 18.7188 39.1562 16.75 36.75 16.75C34.2891 16.75 32.375 18.7188 32.375 21.125C32.375 23.5859 34.2891 25.5 36.75 25.5ZM36.75 18.5C38.1719 18.5 39.375 19.7031 39.375 21.125C39.375 22.6016 38.1719 23.75 36.75 23.75C35.2734 23.75 34.125 22.6016 34.125 21.125C34.125 19.7031 35.2734 18.5 36.75 18.5ZM28.875 28.3984C28.2188 28.3984 27.5625 28.4531 26.9062 28.6719C26.1406 28.8906 25.3203 29 24.5 29C23.625 29 22.8047 28.8906 22.0391 28.6719C21.4922 28.5078 20.6172 28.3984 20.0703 28.3984C18.1016 28.3984 16.1875 29.2734 15.0391 30.9141C14.3828 31.9531 14 33.1562 14 34.4688V35.125C14 36.6016 15.1484 37.75 16.625 37.75H32.375C33.7969 37.75 35 36.6016 35 35.125V34.4688C35 33.1562 34.5625 31.9531 33.9062 30.9141C32.7578 29.2734 30.8438 28.3984 28.875 28.3984ZM33.25 35.125C33.25 35.6172 32.8125 36 32.375 36H16.625C16.1328 36 15.75 35.6172 15.75 35.125V34.4688C15.75 33.5391 15.9688 32.6641 16.5156 31.8984C17.2266 30.8047 18.5938 30.1484 20.0703 30.1484C20.5625 30.1484 21.0547 30.2031 21.5469 30.3125C22.4766 30.6406 23.4609 30.75 24.5 30.75C25.4844 30.75 26.4688 30.6406 27.3984 30.3125C27.8359 30.2031 28.4375 30.1484 28.875 30.1484C30.3516 30.1484 31.7188 30.8047 32.4297 31.8984C32.9766 32.6641 33.25 33.5391 33.25 34.4688V35.125ZM12.25 25.5C14.6562 25.5 16.625 23.5859 16.625 21.125C16.625 18.7188 14.6562 16.75 12.25 16.75C9.78906 16.75 7.875 18.7188 7.875 21.125C7.875 23.5859 9.78906 25.5 12.25 25.5ZM12.25 18.5C13.6719 18.5 14.875 19.7031 14.875 21.125C14.875 22.6016 13.6719 23.75 12.25 23.75C10.7734 23.75 9.625 22.6016 9.625 21.125C9.625 19.7031 10.7734 18.5 12.25 18.5ZM15.5859 27.9609C14.9297 27.5234 14.1641 27.25 13.3438 27.25H11.1562C8.85938 27.25 7 29.2188 7 31.625C7 32.1172 7.38281 32.5 7.875 32.5C8.3125 32.5 8.75 32.1172 8.75 31.625C8.75 30.2031 9.78906 29 11.1562 29H13.3438C13.6172 29 13.8906 29.1094 14.1641 29.2188C14.6016 28.7266 15.0391 28.3438 15.5859 27.9609ZM24.5 27.25C27.8359 27.25 30.625 24.5156 30.625 21.125V13.25L27.5625 14.7812L24.5 13.25L21.4375 14.7812L18.375 13.25V21.125C18.375 24.5156 21.1094 27.25 24.5 27.25ZM20.125 16.0938L21.4375 16.75L24.5 15.2188L27.5625 16.75L28.875 16.0938V18.5H20.125V16.0938ZM20.125 20.25H28.875V21.125C28.875 23.5859 26.9062 25.5 24.5 25.5C22.0391 25.5 20.125 23.5859 20.125 21.125V20.25Z" fill="#EAEAEB"/>
</svg>
