<svg width="50" height="50" viewBox="0 0 50 50" fill="none" xmlns="http://www.w3.org/2000/svg">
<path d="M36.9531 30.9375C36.8125 24.8906 34.0938 22.4062 34 18.0469C33.9531 17.2031 33.2969 16.5 32.5 16.5V15C32.5 14.2031 31.7969 13.5 31 13.5H28C27.1562 13.5 26.5 14.2031 26.5 15V16.5H23.5V15C23.5 14.2031 22.7969 13.5 22 13.5H19C18.1562 13.5 17.5 14.2031 17.5 15V16.5H17.4531C16.6562 16.5 16 17.2031 15.9531 18.0469C15.8594 22.4062 13.1406 24.8906 13 30.9375V32.25C13 33.5156 13.9844 34.5 15.25 34.5H21.25C22.4688 34.5 23.5 33.5156 23.5 32.25V25.5H26.5V32.25C26.5 33.5156 27.4844 34.5 28.75 34.5H34.75C35.9688 34.5 37 33.5156 37 32.25L36.9531 30.9375ZM28 15H31V16.5H28V15ZM19 15H22V16.5H19V15ZM22 32.25C22 32.6719 21.625 33 21.25 33H15.25C14.8281 33 14.5 32.6719 14.5 32.25C14.5 32.25 14.5 30.3281 14.5469 30H22V32.25ZM22 28.5H14.7344C15.0156 26.7656 15.5781 25.3125 16.0938 23.9062C16.75 22.1719 17.4062 20.3438 17.4531 18H22V28.5ZM23.5 24V18H26.5V24H23.5ZM28 18H32.5V18.0469C32.5469 20.3438 33.2031 22.1719 33.8594 23.9062C34.375 25.3125 34.9375 26.7656 35.2188 28.5H28V18ZM35.5 32.25C35.5 32.6719 35.125 33 34.75 33H28.75C28.3281 33 28 32.6719 28 32.25V30H35.4062C35.4531 30.3281 35.5 32.25 35.5 32.25Z" fill="#EAEAEB"/>
</svg>
