<svg width="50" height="50" viewBox="0 0 50 50" fill="none" xmlns="http://www.w3.org/2000/svg">
<g clip-path="url(#clip0)">
<path fill-rule="evenodd" clip-rule="evenodd" d="M32.9997 31.9999C32.9997 31.7347 32.8943 31.4803 32.7068 31.2928C32.5192 31.1052 32.2649 30.9999 31.9997 30.9999C31.7344 30.9999 31.4801 31.1052 31.2926 31.2928C31.105 31.4803 30.9997 31.7347 30.9997 31.9999C30.9997 32.2651 31.105 32.5195 31.2926 32.707C31.4801 32.8945 31.7344 32.9999 31.9997 32.9999C32.2649 32.9999 32.5192 32.8945 32.7068 32.707C32.8943 32.5195 32.9997 32.2651 32.9997 31.9999ZM34.9997 31.9999C34.9997 32.5932 34.8237 33.1733 34.4941 33.6666C34.1644 34.1599 33.6959 34.5445 33.1477 34.7715C32.5995 34.9986 31.9963 35.058 31.4144 34.9422C30.8324 34.8265 30.2979 34.5408 29.8783 34.1212C29.4588 33.7017 29.1731 33.1671 29.0573 32.5852C28.9416 32.0032 29.001 31.4 29.228 30.8518C29.4551 30.3037 29.8396 29.8351 30.333 29.5055C30.8263 29.1758 31.4063 28.9999 31.9997 28.9999C32.7953 28.9999 33.5584 29.316 34.121 29.8786C34.6836 30.4412 34.9997 31.2042 34.9997 31.9999ZM18.9997 23.9999C18.9997 23.7347 18.8943 23.4803 18.7068 23.2928C18.5192 23.1052 18.2649 22.9999 17.9997 22.9999C17.7344 22.9999 17.4801 23.1052 17.2926 23.2928C17.105 23.4803 16.9997 23.7347 16.9997 23.9999C16.9997 24.2651 17.105 24.5195 17.2926 24.707C17.4801 24.8945 17.7344 24.9999 17.9997 24.9999C18.2649 24.9999 18.5192 24.8945 18.7068 24.707C18.8943 24.5195 18.9997 24.2651 18.9997 23.9999ZM20.9997 23.9999C20.9997 24.5932 20.8237 25.1733 20.4941 25.6666C20.1644 26.1599 19.6959 26.5445 19.1477 26.7715C18.5995 26.9986 17.9963 27.058 17.4144 26.9422C16.8324 26.8265 16.2979 26.5408 15.8783 26.1212C15.4588 25.7017 15.1731 25.1671 15.0573 24.5852C14.9416 24.0032 15.001 23.4 15.228 22.8518C15.4551 22.3037 15.8396 21.8351 16.333 21.5055C16.8263 21.1758 17.4063 20.9999 17.9997 20.9999C18.7953 20.9999 19.5584 21.316 20.121 21.8786C20.6836 22.4412 20.9997 23.2042 20.9997 23.9999ZM24.9997 15.9999C24.9997 16.2651 25.105 16.5195 25.2926 16.707C25.4801 16.8945 25.7344 16.9999 25.9997 16.9999C26.2649 16.9999 26.5192 16.8945 26.7068 16.707C26.8943 16.5195 26.9997 16.2651 26.9997 15.9999C26.9997 15.7347 26.8943 15.4803 26.7068 15.2928C26.5192 15.1052 26.2649 14.9999 25.9997 14.9999C25.7344 14.9999 25.4801 15.1052 25.2926 15.2928C25.105 15.4803 24.9997 15.7347 24.9997 15.9999ZM22.9997 15.9999C22.9997 15.4065 23.1756 14.8265 23.5053 14.3332C23.8349 13.8398 24.3034 13.4553 24.8516 13.2282C25.3998 13.0012 26.003 12.9418 26.5849 13.0575C27.1669 13.1733 27.7014 13.459 28.121 13.8786C28.5405 14.2981 28.8263 14.8327 28.942 15.4146C29.0578 15.9966 28.9984 16.5998 28.7713 17.1479C28.5442 17.6961 28.1597 18.1647 27.6664 18.4943C27.173 18.8239 26.593 18.9999 25.9997 18.9999C25.604 18.9999 25.2123 18.9216 24.847 18.7696C24.4817 18.6176 24.1501 18.3948 23.8712 18.1142C23.5924 17.8335 23.3718 17.5004 23.2223 17.1341C23.0727 16.7678 22.997 16.3755 22.9997 15.9799V15.9999ZM38.9997 24.9999C38.9985 22.7857 38.4722 20.6034 37.464 18.6321C36.4557 16.6608 34.9943 14.9568 33.1997 13.6599C32.1237 13.719 31.0762 14.0271 30.1397 14.5599L29.3997 14.8799L28.7197 12.8799C28.9329 12.8098 29.1402 12.7229 29.3397 12.6199L30.6397 12.0999C27.5958 10.7668 24.1734 10.5751 20.9997 11.5599H20.7397C21.4397 11.8399 22.2797 12.1599 23.2597 12.6199L22.4397 14.4399C21.0109 13.8325 19.532 13.3507 18.0197 12.9999C16.2071 14.0503 14.6534 15.494 13.4731 17.2247C12.2927 18.9555 11.5158 20.929 11.1997 22.9999C11.8597 22.9999 12.4997 22.8599 13.1997 22.8399V24.8399C12.4639 24.8513 11.7294 24.9047 10.9997 24.9999C11.0076 27.2484 11.5569 29.462 12.6013 31.4533C13.6457 33.4446 15.1544 35.155 16.9997 36.4399C16.5289 34.8888 16.2732 33.2805 16.2397 31.6599C16.2397 31.3399 16.2397 31.0199 16.2397 30.6799C16.1789 29.7316 16.2191 28.7796 16.3597 27.8399L18.3597 28.2399C18.2765 29.031 18.2765 29.8287 18.3597 30.6199C18.3597 30.9799 18.3597 31.3199 18.3597 31.6599C18.4372 33.7979 18.8979 35.9046 19.7197 37.8799C22.1625 38.9063 24.8465 39.2184 27.4597 38.7799C27.6997 38.3799 27.9597 37.9599 28.2597 37.5399C28.6845 36.9597 29.0339 36.328 29.2997 35.6599L31.2997 36.2199C31.0944 36.8305 30.805 37.4094 30.4397 37.9399C31.6428 37.4837 32.7743 36.8573 33.7997 36.0799C35.4489 34.7474 36.7738 33.0576 37.6746 31.1383C38.5754 29.2189 39.0285 27.1199 38.9997 24.9999ZM40.9997 24.9999C40.9992 27.4451 40.4383 29.8577 39.3601 32.0523C38.2818 34.2469 36.7149 36.1653 34.7797 37.6599C33.3904 38.741 31.8284 39.5795 30.1597 40.1399C27.7518 40.9602 25.1831 41.1947 22.6665 40.8238C20.15 40.4528 17.7581 39.4872 15.6894 38.007C13.6206 36.5268 11.9346 34.5747 10.7712 32.3126C9.60778 30.0505 9.00048 27.5436 8.99966 24.9999C8.97928 24.6735 8.97928 24.3462 8.99966 24.0199C9.19917 20.7465 10.3997 17.6135 12.4388 15.045C14.4778 12.4765 17.2569 10.5967 20.3997 9.65989C22.7901 8.94234 25.3152 8.79396 27.7733 9.22661C30.2313 9.65925 32.554 10.6609 34.5558 12.1516C36.5575 13.6422 38.1828 15.5804 39.3017 17.8114C40.4206 20.0423 41.0021 22.5041 40.9997 24.9999ZM23.1397 18.8799L21.8397 17.3599C21.1196 17.9497 20.5159 18.6686 20.0597 19.4799C19.9068 19.7549 19.7399 20.0219 19.5597 20.2799L21.2397 21.3799L21.7797 20.5199C22.1149 19.8852 22.578 19.3268 23.1397 18.8799ZM22.2997 23.7399L21.6397 25.6199C23.9485 26.4328 26.0463 27.7517 27.7797 29.4799L29.1597 28.0199C27.2153 26.1064 24.8731 24.6451 22.2997 23.7399ZM27.5597 19.1399L29.2397 18.0599C31.1363 20.9147 32.2469 24.2191 32.4597 27.6399L30.4597 27.7599C30.2772 24.6797 29.2761 21.704 27.5597 19.1399Z" fill="#282A35"/>
</g>
<defs>
<clipPath id="clip0">
<rect width="32" height="32" fill="white" transform="translate(9 9)"/>
</clipPath>
</defs>
</svg>
