<svg width="50" height="50" viewBox="0 0 50 50" fill="none" xmlns="http://www.w3.org/2000/svg">
<path fill-rule="evenodd" clip-rule="evenodd" d="M11 36H39V14H11V36ZM41 13V37C41 37.2652 40.8946 37.5196 40.7071 37.7071C40.5196 37.8946 40.2652 38 40 38H10C9.73478 38 9.48043 37.8946 9.29289 37.7071C9.10536 37.5196 9 37.2652 9 37V13C9 12.7348 9.10536 12.4804 9.29289 12.2929C9.48043 12.1054 9.73478 12 10 12H40C40.2652 12 40.5196 12.1054 40.7071 12.2929C40.8946 12.4804 41 12.7348 41 13ZM15 30H23V24H15V30ZM17 22H21V19.7C21 18.52 20.3 17.88 19 17.88C18.4483 17.848 17.905 18.0267 17.48 18.38C17.1518 18.7392 16.9792 19.2138 17 19.7V22ZM13.3 31.7C13.2039 31.6107 13.1276 31.5023 13.0759 31.3817C13.0243 31.2612 12.9984 31.1312 13 31V23C13 22.7348 13.1054 22.4804 13.2929 22.2929C13.4804 22.1054 13.7348 22 14 22H15V19.7C14.9875 19.1943 15.0767 18.6911 15.2622 18.2205C15.4477 17.7498 15.7258 17.3212 16.08 16.96C16.4698 16.5939 16.9291 16.3098 17.4306 16.1243C17.9322 15.9388 18.4658 15.8557 19 15.88C19.5208 15.8373 20.0447 15.9054 20.5373 16.0798C21.0298 16.2542 21.4799 16.5309 21.8578 16.8918C22.2357 17.2527 22.5328 17.6895 22.7297 18.1736C22.9266 18.6576 23.0187 19.1778 23 19.7V22H24C24.2633 22.0059 24.5142 22.1134 24.7 22.3C24.7961 22.3893 24.8724 22.4977 24.9241 22.6183C24.9757 22.7388 25.0016 22.8688 25 23V31C25 31.2652 24.8946 31.5196 24.7071 31.7071C24.5196 31.8946 24.2652 32 24 32H14C13.7367 31.9941 13.4858 31.8866 13.3 31.7ZM29 28H33V26H29V28ZM29 22H37V20H29V22Z" fill="#EAEAEB"/>
</svg>
