<svg width="50" height="50" viewBox="0 0 50 50" fill="none" xmlns="http://www.w3.org/2000/svg">
<path d="M22 18.7969C20.4141 18.8516 19.1016 19.3438 18.0625 20.3828C17.0781 21.3672 16.5312 22.6797 16.5859 24.0469C16.6406 26.7812 16.3672 29.5703 15.8203 32.1953C15.7109 32.6875 16.0391 33.1797 16.4766 33.2344C16.9688 33.3438 17.4062 33.0703 17.5156 32.5781C18.1172 29.7891 18.3906 26.8906 18.3359 24.0469C18.3359 23.1172 18.6641 22.2422 19.3203 21.5859C20.3047 20.6016 21.6172 20.5469 22 20.5469C24.0234 20.6016 25.6094 22.2422 25.6094 24.1562C25.6641 26.9453 25.5 29.6797 25.0078 32.4141C24.9531 32.8516 25.2812 33.2891 25.7734 33.3984C25.7734 33.3984 25.8281 33.3984 25.8828 33.3984C26.3203 33.3984 26.7031 33.125 26.7578 32.6875C27.1953 29.8984 27.4141 27 27.4141 24.1562C27.3594 21.2578 24.9531 18.8516 22 18.7969ZM21.9453 23.5547C21.5078 23.5547 21.125 23.9375 21.125 24.4297C21.1797 28.4219 20.6328 32.3594 19.5938 36.1875L19.5391 36.4062C19.4297 36.7891 19.5938 37.5 20.3594 37.5C20.7422 37.5 21.0703 37.2812 21.1797 36.8984L21.2891 36.625C22.3828 32.6328 22.9297 28.5859 22.875 24.375C22.875 23.8828 22.3828 23.5 21.9453 23.5547ZM14.125 17.7031C12.7578 19.3984 11.9922 21.5312 12.0469 23.7188C12.1016 25.9062 11.8828 28.0938 11.5 30.1719C11.4453 30.6641 11.7734 31.1016 12.2109 31.2109C12.2656 31.2109 12.3203 31.2109 12.375 31.2109C12.8125 31.2109 13.1953 30.8828 13.25 30.5C13.6328 28.2578 13.8516 26.0156 13.7969 23.7188C13.7969 21.9141 14.3438 20.2188 15.4922 18.7969C15.8203 18.4688 15.7656 17.9219 15.3828 17.5938C15 17.2656 14.4531 17.3203 14.125 17.7031ZM35.9453 23.3359C35.9453 22.4609 35.8359 21.5312 35.6719 20.6562C35.5625 20.2188 35.0703 19.8906 34.6328 20C34.1406 20.1094 33.8125 20.5469 33.9219 21.0391C34.0859 21.8047 34.1953 22.5703 34.1953 23.3906C34.25 23.7734 34.25 24.2109 34.1953 24.6484C34.1953 25.1406 34.6328 25.5234 35.0703 25.5234C35.5625 25.5234 35.9453 25.1406 35.9453 24.6484C36 24.2109 36 23.7734 35.9453 23.3359ZM21.7812 9.55469C17.9531 9.44531 14.4531 10.8672 11.8281 13.4922C9.3125 16.0625 7.94531 19.3984 8 23.0078C8 23.3906 8 23.8281 8 24.2109C7.94531 24.7031 8.32812 25.1406 8.82031 25.1406H8.875C9.3125 25.1406 9.69531 24.7578 9.75 24.2656C9.75 23.8281 9.75 23.3906 9.75 22.9531C9.69531 19.8359 10.8438 16.9375 13.0312 14.75C15.3281 12.4531 18.4453 11.25 21.7812 11.3047C25.8281 11.3594 29.6562 13.3828 32.0078 16.7188C32.2812 17.1016 32.8281 17.2109 33.2656 16.9375C33.6484 16.6641 33.7578 16.1172 33.4844 15.6797C30.8047 11.9062 26.4297 9.60938 21.7812 9.55469ZM21.8359 14.1484C21.8359 14.1484 21.7266 14.1484 21.6719 14.1484C21.0703 14.1484 20.0312 14.3125 19.375 14.4219C18.9375 14.5312 18.6094 15.0234 18.7188 15.5156C18.8281 15.9531 19.3203 16.2812 19.8125 16.1719C20.4688 16.0078 21.1797 15.8984 21.8359 15.8984C26.375 16.0078 30.0938 19.6172 30.1484 23.9922C30.2031 26.1797 30.0938 28.3672 29.8203 30.5C29.7656 30.9922 30.1484 31.4297 30.6406 31.4844H30.6953C31.1328 31.4844 31.5156 31.1562 31.5703 30.7188C31.8438 28.4766 31.9531 26.2344 31.8984 23.9922C31.8438 18.6328 27.3047 14.2578 21.8359 14.1484Z" fill="#EAEAEB"/>
<path d="M40.7188 32.25C40.7188 27.4688 36.7812 23.5312 32 23.5312C27.1836 23.5312 23.2812 27.4688 23.2812 32.25C23.2812 37.0664 27.1836 40.9688 32 40.9688C36.7812 40.9688 40.7188 37.0664 40.7188 32.25ZM30.9805 36.8906C30.7695 37.1016 30.3828 37.1016 30.1719 36.8906L26.5156 33.2344C26.3047 33.0234 26.3047 32.6367 26.5156 32.4258L27.3242 31.6523C27.5352 31.4062 27.8867 31.4062 28.0977 31.6523L30.5938 34.1133L35.8672 28.8398C36.0781 28.5938 36.4297 28.5938 36.6406 28.8398L37.4492 29.6133C37.6602 29.8242 37.6602 30.2109 37.4492 30.4219L30.9805 36.8906Z" fill="#EAEAEB"/>
</svg>
