<svg width="50" height="50" viewBox="0 0 50 50" fill="none" xmlns="http://www.w3.org/2000/svg">
<path d="M33.875 23.75H33V20.3594C33 15.5469 29.0625 11.5547 24.25 11.5C19.4375 11.5 15.5 15.4375 15.5 20.25V23.75H14.625C13.1484 23.75 12 24.9531 12 26.375V36.875C12 38.3516 13.1484 39.5 14.625 39.5H33.875C35.2969 39.5 36.5 38.3516 36.5 36.875V26.375C36.5 24.9531 35.2969 23.75 33.875 23.75ZM17.25 20.25C17.25 16.4219 20.3672 13.25 24.25 13.25C28.0781 13.25 31.25 16.4219 31.25 20.25V23.75H17.25V20.25ZM33.875 37.75H14.625C14.1328 37.75 13.75 37.3672 13.75 36.875V26.375C13.75 25.9375 14.1328 25.5 14.625 25.5H33.875C34.3125 25.5 34.75 25.9375 34.75 26.375V36.875C34.75 37.3672 34.3125 37.75 33.875 37.75Z" fill="#EAEAEB"/>
</svg>
