<svg width="50" height="50" viewBox="0 0 50 50" fill="none" xmlns="http://www.w3.org/2000/svg">
<g clip-path="url(#clip0)">
<path d="M18.1225 21.9731C18.1225 22.3682 18.1642 22.6885 18.2372 22.9235C18.3206 23.1584 18.4249 23.4147 18.5709 23.6923C18.6231 23.7778 18.6439 23.8632 18.6439 23.9379C18.6439 24.0447 18.5814 24.1515 18.4458 24.2583L17.7887 24.7068C17.6949 24.7709 17.601 24.8029 17.5176 24.8029C17.4133 24.8029 17.309 24.7495 17.2047 24.6534C17.0587 24.4932 16.9335 24.3224 16.8292 24.1515C16.7249 23.97 16.6206 23.7671 16.5059 23.5215C15.6924 24.5039 14.6703 24.9951 13.4397 24.9951C12.5636 24.9951 11.8648 24.7388 11.3538 24.2263C10.8428 23.7137 10.582 23.0303 10.582 22.176C10.582 21.2683 10.8949 20.5315 11.5311 19.9762C12.1673 19.4209 13.0121 19.1433 14.0863 19.1433C14.4409 19.1433 14.8059 19.1753 15.1918 19.2287C15.5777 19.2821 15.974 19.3675 16.3912 19.4636V18.6841C16.3912 17.8725 16.2243 17.3066 15.901 16.9755C15.5673 16.6445 15.0041 16.4843 14.201 16.4843C13.836 16.4843 13.4605 16.527 13.0746 16.6231C12.6888 16.7192 12.3133 16.8367 11.9483 16.9862C11.7814 17.061 11.6563 17.1037 11.5833 17.125C11.5102 17.1464 11.4581 17.1571 11.4164 17.1571C11.2704 17.1571 11.1974 17.0503 11.1974 16.826V16.3028C11.1974 16.1319 11.2182 16.0038 11.2704 15.929C11.3225 15.8543 11.4164 15.7795 11.5624 15.7048C11.9274 15.5126 12.3655 15.3524 12.8765 15.2242C13.3875 15.0854 13.9299 15.0214 14.5035 15.0214C15.7446 15.0214 16.6519 15.3097 17.236 15.8863C17.8096 16.463 18.1016 17.3386 18.1016 18.5132V21.9731H18.1225ZM13.8881 23.5962C14.2323 23.5962 14.5869 23.5321 14.9624 23.404C15.3378 23.2759 15.6716 23.0409 15.9532 22.7206C16.12 22.5177 16.2452 22.2934 16.3078 22.0372C16.3703 21.7809 16.412 21.4712 16.412 21.1081V20.6596C16.1096 20.5849 15.7863 20.5208 15.4525 20.4781C15.1188 20.4354 14.7955 20.414 14.4722 20.414C13.7734 20.414 13.2624 20.5528 12.9182 20.8412C12.574 21.1295 12.4072 21.5353 12.4072 22.0692C12.4072 22.5711 12.5323 22.9448 12.7931 23.2011C13.0434 23.4681 13.4084 23.5962 13.8881 23.5962V23.5962ZM22.2629 24.7495C22.0752 24.7495 21.95 24.7175 21.8666 24.6427C21.7832 24.5786 21.7102 24.4291 21.6476 24.2263L19.1967 15.9717C19.1341 15.7582 19.1028 15.6194 19.1028 15.5446C19.1028 15.3737 19.1863 15.2776 19.3531 15.2776H20.3752C20.5734 15.2776 20.7089 15.3097 20.782 15.3844C20.8654 15.4485 20.928 15.598 20.9905 15.8009L22.7427 22.8701L24.3697 15.8009C24.4218 15.5873 24.4844 15.4485 24.5678 15.3844C24.6512 15.3204 24.7973 15.2776 24.985 15.2776H25.8193C26.0175 15.2776 26.1531 15.3097 26.2365 15.3844C26.3199 15.4485 26.3929 15.598 26.4347 15.8009L28.0825 22.9555L29.8868 15.8009C29.9494 15.5873 30.0224 15.4485 30.0954 15.3844C30.1788 15.3204 30.3144 15.2776 30.5021 15.2776H31.472C31.6389 15.2776 31.7328 15.3631 31.7328 15.5446C31.7328 15.598 31.7224 15.6514 31.7119 15.7155C31.7015 15.7795 31.6806 15.865 31.6389 15.9824L29.1254 24.2369C29.0629 24.4505 28.9899 24.5893 28.9064 24.6534C28.823 24.7175 28.6874 24.7602 28.5101 24.7602H27.6132C27.415 24.7602 27.2794 24.7281 27.196 24.6534C27.1126 24.5786 27.0396 24.4398 26.9979 24.2263L25.3813 17.3386L23.7752 24.2156C23.723 24.4291 23.6605 24.568 23.577 24.6427C23.4936 24.7175 23.3476 24.7495 23.1598 24.7495H22.2629ZM35.6647 25.0378C35.1223 25.0378 34.58 24.9737 34.0585 24.8456C33.5371 24.7175 33.1303 24.5786 32.8592 24.4185C32.6923 24.3224 32.5776 24.2156 32.5358 24.1195C32.4941 24.0234 32.4733 23.9166 32.4733 23.8205V23.2759C32.4733 23.0516 32.5567 22.9448 32.7131 22.9448C32.7757 22.9448 32.8383 22.9555 32.9009 22.9769C32.9634 22.9982 33.0573 23.0409 33.1616 23.0836C33.5162 23.2438 33.9021 23.372 34.3088 23.4574C34.726 23.5428 35.1328 23.5855 35.5499 23.5855C36.207 23.5855 36.718 23.4681 37.0726 23.2331C37.4272 22.9982 37.6149 22.6565 37.6149 22.2187C37.6149 21.9197 37.5211 21.6741 37.3334 21.4712C37.1456 21.2683 36.791 21.0868 36.28 20.9159L34.7677 20.4354C34.0064 20.1898 33.4432 19.8267 33.099 19.3462C32.7549 18.8763 32.5776 18.3531 32.5776 17.7978C32.5776 17.3493 32.6714 16.9542 32.8592 16.6125C33.0469 16.2707 33.2972 15.9717 33.6101 15.7368C33.9229 15.4912 34.2775 15.3097 34.6947 15.1815C35.1119 15.0534 35.5499 15 36.0088 15C36.2383 15 36.4781 15.0107 36.7076 15.0427C36.9475 15.0747 37.1665 15.1175 37.3855 15.1602C37.5941 15.2136 37.7922 15.267 37.98 15.331C38.1677 15.3951 38.3137 15.4592 38.418 15.5232C38.564 15.6087 38.6683 15.6941 38.7309 15.7902C38.7935 15.8756 38.8248 15.9931 38.8248 16.1426V16.6445C38.8248 16.8687 38.7413 16.9862 38.5849 16.9862C38.5014 16.9862 38.3659 16.9435 38.1886 16.8581C37.5941 16.5804 36.9266 16.4416 36.1861 16.4416C35.5916 16.4416 35.1223 16.5377 34.799 16.7406C34.4757 16.9435 34.3088 17.2532 34.3088 17.691C34.3088 17.99 34.4131 18.2463 34.6217 18.4492C34.8303 18.6521 35.2162 18.8549 35.7689 19.0365L37.2499 19.517C38.0008 19.7626 38.5432 20.1043 38.8665 20.5422C39.1898 20.98 39.3462 21.4819 39.3462 22.0372C39.3462 22.4963 39.2524 22.9128 39.0751 23.2759C38.8873 23.6389 38.637 23.9593 38.3137 24.2156C37.9904 24.4825 37.6045 24.6747 37.1561 24.8136C36.6867 24.9631 36.1966 25.0378 35.6647 25.0378V25.0378Z" fill="#EAEAEB"/>
<path fill-rule="evenodd" clip-rule="evenodd" d="M37.6355 30.2268C34.2043 32.8217 29.219 34.1992 24.9325 34.1992C18.9252 34.1992 13.5124 31.9247 9.42408 28.1445C9.10077 27.8455 9.39279 27.4397 9.77868 27.6747C14.2007 30.3016 19.6553 31.8927 25.2976 31.8927C29.1043 31.8927 33.2865 31.0811 37.1349 29.4153C37.7085 29.1483 38.1987 29.7997 37.6355 30.2268V30.2268Z" fill="#EAEAEB"/>
<path fill-rule="evenodd" clip-rule="evenodd" d="M39.0649 28.5617C38.6269 27.985 36.1655 28.284 35.0496 28.4228C34.7158 28.4655 34.6637 28.1666 34.9662 27.9423C36.9269 26.5327 40.1496 26.9385 40.525 27.4084C40.9005 27.8889 40.4207 31.1886 38.5851 32.769C38.3036 33.0146 38.0324 32.8865 38.1575 32.5661C38.5747 31.5089 39.5029 29.1276 39.0649 28.5617V28.5617Z" fill="#EAEAEB"/>
</g>
<defs>
<clipPath id="clip0">
<rect width="32" height="19.2" fill="white" transform="translate(9 15)"/>
</clipPath>
</defs>
</svg>
