<svg width="50" height="50" viewBox="0 0 50 50" fill="none" xmlns="http://www.w3.org/2000/svg">
<path d="M25.5 26.4648C27.1406 26.4648 28.5 25.1523 28.5 23.4648C28.5 21.8242 27.1406 20.4648 25.5 20.4648C25.4531 20.4648 25.4062 20.5117 25.3594 20.5117C25.4062 20.6992 25.5 21.0273 25.5 21.2617C25.5 22.4805 24.4688 23.5117 23.25 23.5117C23.0156 23.5117 22.6875 23.418 22.5 23.3711C22.5 23.418 22.5 23.4648 22.5 23.4648C22.5 25.1523 23.8125 26.4648 25.5 26.4648ZM38.8125 24.3086C36.2812 19.3398 31.2188 15.9648 25.5 15.9648C19.7344 15.9648 14.6719 19.3398 12.1406 24.3086C12.0469 24.4961 12 24.7773 12 25.0117C12 25.1992 12.0469 25.4805 12.1406 25.668C14.6719 30.6367 19.7344 33.9648 25.5 33.9648C31.2188 33.9648 36.2812 30.6367 38.8125 25.668C38.9062 25.4805 38.9531 25.1992 38.9531 24.9648C38.9531 24.7773 38.9062 24.4961 38.8125 24.3086ZM25.5 17.4648C28.7812 17.4648 31.5 20.1836 31.5 23.4648C31.5 26.793 28.7812 29.4648 25.5 29.4648C22.1719 29.4648 19.5 26.793 19.5 23.4648C19.5 20.1836 22.1719 17.5117 25.5 17.4648ZM25.5 32.4648C20.4375 32.4648 15.8438 29.6055 13.5 24.9648C14.625 22.7617 17.3438 20.043 19.5469 18.918C18.5625 20.1836 18 21.7773 18 23.4648C18 27.6367 21.3281 30.9648 25.5 30.9648C29.625 30.9648 33 27.6367 33 23.4648C33 21.7773 32.3906 20.1836 31.4062 18.918C33.6094 20.043 36.3281 22.7617 37.5 24.9648C35.1094 29.6055 30.5156 32.4648 25.5 32.4648Z" fill="#282A35"/>
<line x1="25.3857" y1="9" x2="25.3857" y2="12.9649" stroke="#282A35"/>
<line y1="-0.5" x2="3.96491" y2="-0.5" transform="matrix(-4.37103e-08 -1 -1 4.37103e-08 24.8857 41)" stroke="#282A35"/>
<line x1="14.3929" y1="9.70568" x2="16.6571" y2="12.9605" stroke="#282A35"/>
<line y1="-0.5" x2="3.96491" y2="-0.5" transform="matrix(0.571064 -0.820905 -0.820905 -0.571064 13.9824 40.0088)" stroke="#282A35"/>
<line y1="-0.5" x2="3.96491" y2="-0.5" transform="matrix(-0.571064 0.820905 0.820905 0.571064 36.0723 9.99121)" stroke="#282A35"/>
<line x1="35.6618" y1="40.2943" x2="33.3976" y2="37.0395" stroke="#282A35"/>
</svg>
